<svg width="52" height="52" viewBox="0 0 52 52" fill="none" xmlns="http://www.w3.org/2000/svg">
<path d="M41.0844 4.67188V4.82188H41.2344H44.2812C45.8785 4.82188 47.1781 6.12155 47.1781 7.71875C47.1781 14.2814 44.112 19.0593 39.1828 20.3886L39.1145 20.407L39.0852 20.4714C37.3774 24.2309 34.677 27.4268 31.2491 29.7364C30.4099 30.3013 29.9125 31.2677 29.9125 32.3182V37.9098V38.026L30.025 38.0551C31.7107 38.4905 32.9594 40.0245 32.9594 41.8438V41.9938H33.1094H34.125C35.7222 41.9938 37.0219 43.2934 37.0219 44.8906V50.9844C37.0219 51.4625 36.6342 51.85 36.1562 51.85H15.8438C15.3658 51.85 14.9781 51.4625 14.9781 50.9844V44.8906C14.9781 43.2934 16.2778 41.9938 17.875 41.9938H18.8906H19.0406V41.8438C19.0406 40.7989 19.4475 39.817 20.1869 39.0775L20.0808 38.9715L20.1869 39.0775C20.6897 38.5746 21.3047 38.2263 21.9748 38.0544L22.0875 38.0255V37.9091V32.3131C22.0875 31.2657 21.5903 30.3011 20.752 29.7363C17.3244 27.427 14.624 24.2312 12.916 20.4717L12.8867 20.4073L12.8184 20.3889C7.88849 19.0601 4.82188 14.282 4.82188 7.71875C4.82188 6.12155 6.12155 4.82188 7.71875 4.82188H10.7656H10.9156V4.67188V3.04688C10.9156 1.44967 12.2153 0.15 13.8125 0.15H38.1875C39.7847 0.15 41.0844 1.44967 41.0844 3.04688V4.67188ZM10.9156 6.70312V6.55312H10.7656H7.71875C7.07589 6.55312 6.55313 7.07589 6.55313 7.71875C6.55313 12.7438 8.44092 16.5077 11.7421 18.1429L12.0583 18.2995L11.9517 17.9631C11.264 15.7946 10.9156 13.5428 10.9156 11.243V6.70312ZM35.1406 50.1188H35.2906V49.9688V44.8906C35.2906 44.2478 34.7679 43.725 34.125 43.725H17.875C17.2321 43.725 16.7094 44.2478 16.7094 44.8906V49.9688V50.1188H16.8594H35.1406ZM30.2819 28.3004L30.282 28.3004C33.5731 26.083 36.138 22.9794 37.6992 19.3253C38.7967 16.7571 39.3531 14.0375 39.3531 11.243V3.04688C39.3531 2.40402 38.8304 1.88125 38.1875 1.88125H13.8125C13.1696 1.88125 12.6469 2.40402 12.6469 3.04688V11.243C12.6469 14.0383 13.2037 16.7578 14.3016 19.3252C15.863 22.9795 18.428 26.0832 21.7193 28.3006C23.0326 29.1855 23.8186 30.6847 23.8186 32.3131V38.7969C23.8186 39.2758 23.4301 39.6671 22.953 39.6671C22.9301 39.6671 22.9075 39.6662 22.885 39.6645L22.8764 39.6638L22.8677 39.6641C22.3176 39.6853 21.8027 39.91 21.4111 40.3017L21.5171 40.4078L21.4111 40.3017C20.9992 40.7137 20.7719 41.2618 20.7719 41.8438V41.9938H20.9219H31.0781H31.2281V41.8438C31.2281 40.6409 30.2497 39.6625 29.0469 39.6625C28.5689 39.6625 28.1812 39.275 28.1812 38.7969V32.3182C28.1812 30.6861 28.9678 29.185 30.2819 28.3004ZM40.0487 17.9629L39.9421 18.2993L40.2583 18.1427C43.5593 16.5073 45.4469 12.7435 45.4469 7.71875C45.4469 7.07589 44.9241 6.55312 44.2812 6.55312H41.2344H41.0844V6.70312V11.243C41.0844 13.5422 40.7361 15.7939 40.0487 17.9629Z" fill="#0F4C81" stroke="white" stroke-width="0.3"/>
<path d="M41.6417 48.9531H42.2079C41.9194 48.8959 41.7255 48.8903 41.6417 48.9531Z" fill="black"/>
</svg>
