<svg width="60" height="60" viewBox="0 0 60 60" fill="none" xmlns="http://www.w3.org/2000/svg">
<path d="M43.0038 28.2206L42.8045 28.7594H43.3789H51.2109C53.8978 28.7594 56.0844 30.946 56.0844 33.6328C56.0844 34.8796 55.6141 36.0181 54.8405 36.8815L54.6013 37.1484L54.8405 37.4154C55.6141 38.2787 56.0844 39.4172 56.0844 40.6641C56.0844 42.9066 54.5604 44.8022 52.4926 45.3666L52.0609 45.4844L52.2263 45.9003C52.4471 46.4556 52.5687 47.0611 52.5687 47.6953C52.5687 49.9379 51.0448 51.8334 48.977 52.3978L48.5453 52.5157L48.7106 52.9315C48.9315 53.4869 49.0531 54.0923 49.0531 54.7266C49.0531 57.4134 46.8665 59.6 44.1797 59.6H33.6328C33.522 59.6 33.4114 59.5864 33.3035 59.5594C33.3034 59.5594 33.3034 59.5594 33.3033 59.5594L20.9707 56.4762L20.6449 56.3948L20.5083 56.7015C19.748 58.4085 18.0374 59.6 16.0547 59.6H8.78907C8.0392 59.6 7.43125 58.9921 7.43125 58.2422V56.4844V56.0844H7.03125H1.75782C1.00794 56.0844 0.400032 55.4764 0.400122 54.7266V30.1172C0.400122 29.3673 1.00807 28.7594 1.75793 28.7594H1.76255H1.76751H1.77283H1.77848H1.78448H1.79083H1.79751H1.80454H1.8119H1.8196H1.82764H1.83601H1.84471H1.85375H1.86312H1.87282H1.88284H1.89319H1.90387H1.91487H1.92619H1.93783H1.94979H1.96207H1.97467H1.98758H2.00081H2.01435H2.0282H2.04236H2.05683H2.07161H2.0867H2.10208H2.11778H2.13377H2.15006H2.16666H2.18355H2.20073H2.21821H2.23599H2.25406H2.27242H2.29107H2.31H2.32923H2.34874H2.36853H2.38861H2.40896H2.4296H2.45052H2.47171H2.49318H2.51492H2.53694H2.55923H2.58179H2.60462H2.62772H2.65108H2.67471H2.6986H2.72275H2.74717H2.77184H2.79677H2.82196H2.84741H2.87311H2.89906H2.92526H2.95172H2.97842H3.00537H3.03256H3.06H3.08768H3.11561H3.14377H3.17218H3.20082H3.2297H3.25881H3.28816H3.31774H3.34755H3.37759H3.40786H3.43835H3.46907H3.50001H3.53118H3.56257H3.59418H3.626H3.65805H3.69031H3.72278H3.75547H3.78837H3.82148H3.8548H3.88833H3.92206H3.956H3.99014H4.02449H4.05903H4.09377H4.12872H4.16386H4.19919H4.23472H4.27044H4.30636H4.34246H4.37875H4.41523H4.45189H4.48874H4.52578H4.56299H4.60038H4.63796H4.67571H4.71364H4.75174H4.79002H4.82846H4.86708H4.90587H4.94483H4.98395H5.02324H5.0627H5.10231H5.14209H5.18203H5.22212H5.26238H5.30278H5.34335H5.38406H5.42493H5.46595H5.50712H5.54843H5.5899H5.6315H5.67325H5.71515H5.75718H5.79935H5.84166H5.88411H5.92669H5.96941H6.01226H6.05524H6.09835H6.14159H6.18496H6.22845H6.27207H6.31581H6.35967H6.40365H6.44776H6.49197H6.53631H6.58076H6.62532H6.67H6.71479H6.75968H6.80469H6.8498H6.89502H6.94034H6.98576H7.03128H7.07691H7.12263H7.16845H7.21437H7.26038H7.30648H7.35268H7.39896H7.44534H7.4918H7.53835H7.58498H7.6317H7.6785H7.72538H7.77234H7.81937H7.86649H7.91368H7.96094H8.00828H8.05568H8.10316H8.15071H8.19832H8.246H8.29374H8.34155H8.38941H8.43734H8.48533H8.53338H8.58148H8.62963H8.67784H8.7261H8.77442H8.82278H8.87119H8.91964H8.96815H9.01669H9.06528H9.11391H9.16258H9.21129H9.26003H9.30882H9.35763H9.40648H9.45536H9.50427H9.55321H9.60218H9.65117H9.70019H9.74923H9.79829H9.84738H9.89648H9.9456H9.99474H10.0439H10.0931H10.1422H10.1914H10.2406H10.2898H10.3391H10.3883H10.4375H10.4867H10.536H10.5852H10.6344H10.6837H10.7329H10.7821H10.8313H10.8805H10.9297H10.9789H11.0281H11.0773H11.1264H11.1755H11.2246H11.2737H11.3228H11.3719H11.4209H11.4699H11.5189H11.5678H11.6167H11.6656H11.7145H11.7633H11.8121H11.8609H11.9096H11.9583H12.0069H12.0556H12.1041H12.1526H12.2011H12.2495H12.2979H12.3463H12.3946H12.4428H12.491H12.5391H12.5872H12.6352H12.6831H12.731H12.7789H12.8266H12.8743H12.922H12.9696H13.0171H13.0645H13.1119H13.1592H13.2064H13.2535H13.3006H13.3476H13.3945H13.4413H13.4881H13.5348H13.5814H13.6279H13.6743H13.7206H13.7668H13.813H13.859H13.905H13.9508H13.9966H14.0423H14.0878H14.1333H14.1787H14.2239H14.2691H14.3142H14.3591H14.4039H14.4487H14.4933H14.5378H14.5822H14.6264H14.6706H14.7146H14.7585H14.8023H14.846H14.8895H14.933H14.9763H15.0194H15.0625H15.1054H15.1482H15.1908H15.2333H15.2757H15.3179H15.36H15.402H15.4438H15.4854H15.527H15.5683H15.6096H15.6507H15.6916H15.7324H15.773H15.8135H15.8538H15.894H15.934H15.9738H16.0135H16.053H16.0924H16.1316H16.1706H16.2095H16.2482H16.2867H16.3251H16.3632H16.4012H16.4391H16.4767H16.5142H16.5515H16.5886H16.6255H16.6623H16.6988H16.7352H16.7714H16.8074H16.8432H16.8788H16.9142H16.9495H16.9845H17.0193H17.054H17.0884H17.1226H17.1567H17.1905H17.2241H17.2575H17.2907H17.3237H17.3565H17.3891H17.4214H17.4536H17.4855H17.5172H17.5487H17.5799H17.611H17.6418H17.6724H17.7028H17.7329H17.7628H17.7925H17.8219H17.8511H17.8801H17.9089H17.9374H17.9657H17.9937H18.0215H18.049H18.0763H18.1034H18.1302H18.1568H18.1831H18.2091H18.2349H18.2605H18.2858H18.3109H18.3356H18.3602H18.3844H18.4084H18.4322H18.4557H18.4789H18.5018H18.5245H18.5469H18.5691H18.5909H18.6125H18.6338H18.6549H18.6756H18.6961H18.7163H18.7362H18.7559H18.7752H18.7943H18.813H18.8315H18.8497H18.8676H18.8852H18.9026H18.9196H18.9363H18.9527H18.9689H18.9847H19.0002H19.0154H19.0303H19.0449H19.0592H19.0732H19.0869H19.1003H19.1133H19.1261H19.1385H19.1506H19.1624H19.1738H19.185H19.1958H19.2063H19.2164H19.2263H19.2358H19.245H19.2538H19.2624H19.2705H19.2784H19.2859H19.2931H19.2999H19.3064H19.3126H19.3184H19.3238H19.3289H19.3337H19.388L19.4403 28.7449C20.6853 28.4006 27.0335 26.6098 30.2814 24.9817L30.2815 24.9817C31.0737 24.5845 31.8056 23.8597 32.4539 22.9654C33.1056 22.0663 33.6917 20.9696 34.1835 19.7928C35.1651 17.4438 35.7906 14.7268 35.7906 12.5391C35.7906 11.7892 36.3986 11.1813 37.1484 11.1813C39.4317 11.1813 41.5959 12.1731 43.0865 13.9025L43.3895 13.6413L43.0865 13.9025C44.5817 15.6372 45.2454 17.9323 44.9072 20.2003C44.5568 22.5515 43.9598 25.6357 43.0038 28.2206ZM7.03114 53.3688H7.43114V52.9688V31.875V31.475H7.03114H3.51551H3.11551V31.875V52.9688V53.3688H3.51551H7.03114ZM10.1468 56.4844V56.8844H10.5468H16.0546C17.2447 56.8844 18.2124 55.9167 18.2124 54.7266V31.875V31.475H17.8124H10.5468H10.1468V31.875V56.4844ZM33.7522 56.8724L33.8 56.8844H33.8493H44.1797C45.3699 56.8844 46.3375 55.9167 46.3375 54.7266C46.3375 53.5364 45.3699 52.5687 44.1797 52.5687H40.6641C39.9142 52.5687 39.3063 51.9608 39.3063 51.2109C39.3063 50.4611 39.9142 49.8531 40.6641 49.8531H40.6685H40.673H40.6777H40.6824H40.6873H40.6922H40.6973H40.7025H40.7078H40.7131H40.7186H40.7242H40.7299H40.7358H40.7417H40.7477H40.7538H40.76H40.7663H40.7728H40.7793H40.7859H40.7927H40.7995H40.8064H40.8134H40.8206H40.8278H40.8351H40.8425H40.85H40.8576H40.8654H40.8732H40.8811H40.889H40.8971H40.9053H40.9136H40.922H40.9304H40.939H40.9476H40.9563H40.9652H40.9741H40.9831H40.9922H41.0014H41.0107H41.02H41.0295H41.039H41.0486H41.0583H41.0681H41.078H41.088H41.098H41.1082H41.1184H41.1287H41.1391H41.1496H41.1601H41.1708H41.1815H41.1923H41.2032H41.2141H41.2252H41.2363H41.2475H41.2588H41.2701H41.2815H41.293H41.3046H41.3163H41.328H41.3398H41.3517H41.3637H41.3757H41.3878H41.4H41.4123H41.4246H41.437H41.4495H41.462H41.4746H41.4873H41.5001H41.5129H41.5258H41.5388H41.5518H41.5649H41.5781H41.5913H41.6046H41.618H41.6314H41.6449H41.6584H41.6721H41.6858H41.6995H41.7133H41.7272H41.7411H41.7551H41.7692H41.7833H41.7975H41.8118H41.8261H41.8404H41.8548H41.8693H41.8839H41.8985H41.9131H41.9278H41.9426H41.9574H41.9723H41.9872H42.0022H42.0172H42.0323H42.0475H42.0627H42.0779H42.0932H42.1086H42.124H42.1394H42.155H42.1705H42.1861H42.2018H42.2175H42.2332H42.249H42.2649H42.2808H42.2967H42.3127H42.3287H42.3448H42.3609H42.3771H42.3933H42.4095H42.4258H42.4422H42.4585H42.475H42.4914H42.5079H42.5245H42.541H42.5577H42.5743H42.591H42.6078H42.6245H42.6413H42.6582H42.6751H42.692H42.709H42.726H42.743H42.76H42.7771H42.7943H42.8114H42.8286H42.8458H42.8631H42.8804H42.8977H42.9151H42.9324H42.9499H42.9673H42.9848H43.0023H43.0198H43.0373H43.0549H43.0725H43.0902H43.1078H43.1255H43.1432H43.1609H43.1787H43.1965H43.2143H43.2321H43.2499H43.2678H43.2857H43.3036H43.3215H43.3395H43.3575H43.3755H43.3935H43.4115H43.4295H43.4476H43.4657H43.4838H43.5019H43.52H43.5382H43.5563H43.5745H43.5927H43.6109H43.6291H43.6474H43.6656H43.6839H43.7021H43.7204H43.7387H43.757H43.7753H43.7936H43.8119H43.8303H43.8486H43.867H43.8853H43.9037H43.9221H43.9404H43.9588H43.9772H43.9956H44.014H44.0324H44.0508H44.0692H44.0876H44.106H44.1244H44.1429H44.1613H44.1797H44.1981H44.2165H44.2349H44.2533H44.2718H44.2902H44.3086H44.327H44.3454H44.3638H44.3822H44.4006H44.4189H44.4373H44.4557H44.4741H44.4924H44.5108H44.5291H44.5474H44.5658H44.5841H44.6024H44.6207H44.639H44.6572H44.6755H44.6938H44.712H44.7302H44.7485H44.7667H44.7849H44.803H44.8212H44.8393H44.8575H44.8756H44.8937H44.9118H44.9298H44.9479H44.9659H44.9839H45.0019H45.0199H45.0378H45.0558H45.0737H45.0916H45.1094H45.1273H45.1451H45.1629H45.1807H45.1984H45.2162H45.2339H45.2516H45.2692H45.2868H45.3045H45.322H45.3396H45.3571H45.3746H45.3921H45.4095H45.4269H45.4443H45.4617H45.479H45.4963H45.5135H45.5308H45.5479H45.5651H45.5822H45.5993H45.6164H45.6334H45.6504H45.6674H45.6843H45.7012H45.718H45.7348H45.7516H45.7683H45.785H45.8017H45.8183H45.8349H45.8515H45.868H45.8844H45.9008H45.9172H45.9335H45.9498H45.9661H45.9823H45.9985H46.0146H46.0307H46.0467H46.0627H46.0786H46.0945H46.1104H46.1261H46.1419H46.1576H46.1733H46.1889H46.2044H46.2199H46.2354H46.2508H46.2661H46.2814H46.2967H46.3119H46.327H46.3421H46.3572H46.3722H46.3871H46.402H46.4168H46.4316H46.4463H46.4609H46.4755H46.49H46.5045H46.5189H46.5333H46.5476H46.5619H46.576H46.5902H46.6042H46.6182H46.6322H46.646H46.6599H46.6736H46.6873H46.7009H46.7145H46.728H46.7414H46.7548H46.7681H46.7813H46.7945H46.8076H46.8206H46.8336H46.8465H46.8593H46.872H46.8847H46.8973H46.9099H46.9224H46.9348H46.9471H46.9593H46.9715H46.9836H46.9957H47.0076H47.0195H47.0313H47.0431H47.0547H47.0663H47.0778H47.0893H47.1006H47.1119H47.1231H47.1342H47.1453H47.1562H47.1671H47.1779H47.1886H47.1992H47.2098H47.2203H47.2307H47.241H47.2512H47.2613H47.2714H47.2813H47.2912H47.301H47.3107H47.3204H47.3299H47.3394H47.3487H47.358H47.3672H47.3763H47.3853H47.3942H47.403H47.4118H47.4204H47.429H47.4374H47.4458H47.4541H47.4622H47.4703H47.4783H47.4862H47.494H47.5017H47.5093H47.5169H47.5243H47.5316H47.5388H47.5459H47.553H47.5599H47.5667H47.5734H47.5801H47.5866H47.593H47.5993H47.6056H47.6117H47.6177H47.6236H47.6294H47.6351H47.6407H47.6462H47.6516H47.6569H47.6621H47.6671H47.6721H47.677H47.6817H47.6864H47.6909H47.6953C48.8855 49.8531 49.8531 48.8855 49.8531 47.6953C49.8531 46.5051 48.8855 45.5375 47.6953 45.5375H40.6641C39.9142 45.5375 39.3063 44.9296 39.3063 44.1797C39.3063 43.4298 39.9142 42.8219 40.6641 42.8219H40.6705H40.6771H40.6838H40.6907H40.6978H40.705H40.7124H40.72H40.7277H40.7355H40.7435H40.7517H40.76H40.7685H40.7771H40.7859H40.7948H40.8039H40.8131H40.8225H40.832H40.8417H40.8515H40.8615H40.8716H40.8819H40.8923H40.9028H40.9135H40.9244H40.9353H40.9465H40.9577H40.9691H40.9807H40.9924H41.0042H41.0162H41.0283H41.0405H41.0529H41.0654H41.0781H41.0909H41.1038H41.1168H41.13H41.1433H41.1568H41.1704H41.1841H41.1979H41.2119H41.226H41.2402H41.2546H41.269H41.2836H41.2984H41.3132H41.3282H41.3433H41.3586H41.3739H41.3894H41.405H41.4207H41.4365H41.4525H41.4685H41.4847H41.501H41.5175H41.534H41.5507H41.5674H41.5843H41.6013H41.6184H41.6357H41.653H41.6705H41.688H41.7057H41.7235H41.7413H41.7593H41.7774H41.7957H41.814H41.8324H41.8509H41.8696H41.8883H41.9071H41.9261H41.9451H41.9643H41.9835H42.0028H42.0223H42.0418H42.0615H42.0812H42.1011H42.121H42.141H42.1611H42.1814H42.2017H42.2221H42.2426H42.2632H42.2838H42.3046H42.3255H42.3464H42.3675H42.3886H42.4098H42.4311H42.4525H42.474H42.4955H42.5172H42.5389H42.5607H42.5826H42.6046H42.6267H42.6488H42.671H42.6933H42.7157H42.7382H42.7607H42.7833H42.806H42.8288H42.8516H42.8745H42.8975H42.9206H42.9437H42.9669H42.9902H43.0136H43.037H43.0605H43.084H43.1077H43.1314H43.1551H43.179H43.2029H43.2268H43.2508H43.2749H43.2991H43.3233H43.3476H43.3719H43.3963H43.4208H43.4453H43.4699H43.4945H43.5192H43.544H43.5688H43.5937H43.6186H43.6436H43.6686H43.6937H43.7188H43.744H43.7693H43.7945H43.8199H43.8453H43.8707H43.8962H43.9218H43.9473H43.973H43.9987H44.0244H44.0502H44.076H44.1018H44.1277H44.1537H44.1797H44.2057H44.2318H44.2579H44.284H44.3102H44.3364H44.3627H44.389H44.4153H44.4417H44.4681H44.4945H44.521H44.5475H44.5741H44.6006H44.6272H44.6539H44.6805H44.7072H44.734H44.7607H44.7875H44.8143H44.8411H44.868H44.8949H44.9218H44.9487H44.9756H45.0026H45.0296H45.0566H45.0837H45.1107H45.1378H45.1649H45.192H45.2192H45.2463H45.2735H45.3007H45.3279H45.3551H45.3823H45.4096H45.4368H45.4641H45.4913H45.5186H45.5459H45.5732H45.6006H45.6279H45.6552H45.6826H45.7099H45.7373H45.7646H45.792H45.8193H45.8467H45.8741H45.9015H45.9288H45.9562H45.9836H46.011H46.0383H46.0657H46.0931H46.1204H46.1478H46.1752H46.2025H46.2299H46.2572H46.2846H46.3119H46.3392H46.3665H46.3938H46.4211H46.4484H46.4757H46.503H46.5302H46.5575H46.5847H46.6119H46.6391H46.6663H46.6935H46.7206H46.7477H46.7749H46.8019H46.829H46.8561H46.8831H46.9101H46.9371H46.9641H46.9911H47.018H47.0449H47.0718H47.0986H47.1255H47.1523H47.179H47.2058H47.2325H47.2592H47.2859H47.3125H47.3391H47.3657H47.3922H47.4187H47.4452H47.4716H47.498H47.5244H47.5507H47.577H47.6033H47.6295H47.6557H47.6818H47.7079H47.734H47.76H47.786H47.812H47.8379H47.8637H47.8895H47.9153H47.941H47.9667H47.9923H48.0179H48.0435H48.0689H48.0944H48.1198H48.1451H48.1704H48.1956H48.2208H48.246H48.2711H48.2961H48.3211H48.346H48.3708H48.3956H48.4204H48.4451H48.4697H48.4943H48.5188H48.5433H48.5677H48.592H48.6163H48.6405H48.6647H48.6887H48.7128H48.7367H48.7606H48.7844H48.8082H48.8319H48.8555H48.8791H48.9026H48.926H48.9493H48.9726H48.9958H49.0189H49.042H49.065H49.0879H49.1107H49.1335H49.1562H49.1788H49.2013H49.2238H49.2461H49.2684H49.2907H49.3128H49.3348H49.3568H49.3787H49.4005H49.4222H49.4439H49.4654H49.4869H49.5083H49.5296H49.5508H49.5719H49.593H49.6139H49.6348H49.6555H49.6762H49.6968H49.7173H49.7377H49.758H49.7782H49.7983H49.8183H49.8383H49.8581H49.8778H49.8975H49.917H49.9365H49.9558H49.975H49.9942H50.0132H50.0321H50.051H50.0697H50.0883H50.1068H50.1253H50.1436H50.1618H50.1799H50.1979H50.2157H50.2335H50.2512H50.2687H50.2862H50.3035H50.3207H50.3378H50.3548H50.3717H50.3885H50.4051H50.4216H50.4381H50.4544H50.4706H50.4866H50.5026H50.5184H50.5341H50.5497H50.5651H50.5805H50.5957H50.6108H50.6258H50.6406H50.6554H50.67H50.6844H50.6988H50.713H50.7271H50.7411H50.7549H50.7686H50.7822H50.7956H50.8089H50.8221H50.8351H50.848H50.8608H50.8735H50.886H50.8983H50.9106H50.9227H50.9346H50.9464H50.9581H50.9697H50.9811H50.9923H51.0034H51.0144H51.0253H51.0359H51.0465H51.0569H51.0671H51.0773H51.0872H51.097H51.1067H51.1162H51.1256H51.1348H51.1439H51.1528H51.1616H51.1702H51.1786H51.1869H51.1951H51.2031H51.2109C52.4011 42.8219 53.3687 41.8542 53.3687 40.6641C53.3687 39.4739 52.4011 38.5063 51.2109 38.5063H40.6641C39.9142 38.5063 39.3063 37.8983 39.3063 37.1484C39.3063 36.3986 39.9142 35.7906 40.6641 35.7906H51.2109C52.4011 35.7906 53.3687 34.823 53.3687 33.6328C53.3687 32.4426 52.4011 31.475 51.2109 31.475H40.6641C40.1935 31.475 39.7564 31.2312 39.509 30.8309C39.2616 30.4307 39.2392 29.9308 39.4496 29.5099C40.3248 27.7597 41.3824 25.4271 42.2214 19.7998C42.4429 18.3147 42.0087 16.8112 41.0297 15.6755L40.7268 15.9367L41.0297 15.6755C40.4524 15.0058 39.7202 14.5052 38.909 14.2084L38.436 14.0354L38.3746 14.5353C38.0872 16.8733 37.3347 19.6197 36.1598 22.025C34.9806 24.4393 33.4032 26.4545 31.4984 27.4094C28.5896 28.8677 23.5949 30.3833 21.2177 31.0658L20.9281 31.149V31.4503V53.3542V53.6665L21.2311 53.7422L33.7522 56.8724Z" fill="#0F4C81" stroke="white" stroke-width="0.8"/>
</svg>
