<svg width="67" height="67" viewBox="0 0 67 67" fill="none" xmlns="http://www.w3.org/2000/svg">
<path d="M50.5 37.25V37.75H51H59.75C60.4413 37.75 61 38.3098 61 39V56.5V57H61.5H64.5V59.5H2.5V57H5.5H6V56.5V30.25C6 29.5598 6.55872 29 7.25 29H16H16.5V28.5V12.75C16.5 12.0598 17.0587 11.5 17.75 11.5H28.25C28.9413 11.5 29.5 12.0598 29.5 12.75V19.75V20.25H30H38.75C39.4413 20.25 40 20.8098 40 21.5V28.5V29H40.5H49.25C49.9413 29 50.5 29.5598 50.5 30.25V37.25ZM9 31.5H8.5V32V56.5V57H9H16H16.5V56.5V32V31.5H16H9ZM19.5 14H19V14.5V30.25V56.5V57H19.5H26.5H27V56.5V21.5V14.5V14H26.5H19.5ZM30 22.75H29.5V23.25V56.5V57H30H37H37.5V56.5V30.25V23.25V22.75H37H30ZM40.5 31.5H40V32V56.5V57H40.5H47.5H48V56.5V39V32V31.5H47.5H40.5ZM50.5 56.5V57H51H58H58.5V56.5V40.75V40.25H58H51H50.5V40.75V56.5Z" fill="#0F4C81" stroke="white"/>
</svg>
