<svg width="125" height="125" viewBox="0 0 125 125" fill="none" xmlns="http://www.w3.org/2000/svg">
<path d="M62.6587 39.8379L33.9462 32.1468C32.7766 31.8287 31.5895 32.5279 31.2778 33.6868C30.9665 34.8479 31.6567 36.0436 32.8178 36.3549L61.5304 44.046C61.7198 44.0961 61.9093 44.12 62.0944 44.12C63.0572 44.12 63.9372 43.4774 64.1963 42.506C64.5122 41.3431 63.8217 40.1471 62.6587 39.8379Z" fill="#3F89CA" fill-opacity="0.5"/>
<path d="M69.082 43.0386C69.1627 42.9253 69.2302 42.8012 69.3326 42.7053C69.2324 42.8033 69.1648 42.9253 69.082 43.0386Z" fill="#3F89CA" fill-opacity="0.5"/>
<path d="M68.8516 43.3785C68.8015 43.4897 68.7884 43.6138 68.7578 43.7357C68.7884 43.616 68.8015 43.4919 68.8516 43.3785Z" fill="#3F89CA" fill-opacity="0.5"/>
<path d="M70.0493 42.2554C69.8926 42.3141 69.764 42.4121 69.6289 42.5038C69.764 42.4143 69.8926 42.3162 70.0493 42.2554Z" fill="#3F89CA" fill-opacity="0.5"/>
<path d="M68.7587 106.807C68.371 105.668 68.9787 104.431 70.1178 104.043L72.9995 103.061V45.8211L71.5359 46.3286C70.3946 46.725 69.1574 46.1218 68.7651 44.9848C68.6759 44.7257 68.6497 44.462 68.6585 44.2029C68.6585 44.2267 68.6454 44.2487 68.6454 44.2726V103.303L23.2352 91.7149V32.5192L22.1722 32.8678L18.8789 35.8301V93.4055C18.8789 94.4009 19.5542 95.2678 20.5191 95.5162L70.2858 108.215C70.4646 108.261 70.6452 108.283 70.8239 108.283C69.9131 108.284 69.0658 107.713 68.7587 106.807Z" fill="#3F89CA" fill-opacity="0.5"/>
<path d="M70.8281 108.281C71.0698 108.281 71.3072 108.242 71.5339 108.164H71.5318C71.2987 108.244 71.0613 108.281 70.8281 108.281Z" fill="#3F89CA" fill-opacity="0.5"/>
<path d="M19.8438 29.186C19.9919 29.0836 20.1399 28.9791 20.31 28.9159C20.1356 28.9789 19.9919 29.0815 19.8438 29.186Z" fill="#3F89CA" fill-opacity="0.5"/>
<path d="M111.155 29.8595C111.128 29.8137 111.083 29.7877 111.054 29.7462C111.268 30.0642 111.418 30.4279 111.44 30.8309C111.49 31.7979 110.893 32.6844 109.979 33.0003L108.271 33.5928L119.625 53.4228L88.4908 64.207L79.789 51.6585C79.1027 50.674 77.7436 50.4235 76.757 51.1119C75.7682 51.7957 75.5241 53.1551 76.2082 54.1439L85.8508 68.0493C86.267 68.646 86.942 68.9858 87.6414 68.9858C87.8788 68.9858 88.1205 68.9488 88.3536 68.866L105.881 62.7935V59.7331C105.881 58.5286 106.857 57.5548 108.06 57.5548C109.262 57.5548 110.238 58.5283 110.238 59.7331V61.284L123.533 56.6794C124.145 56.4658 124.633 55.9931 124.86 55.3835C125.086 54.7779 125.032 54.1005 124.71 53.5364L111.155 29.8595Z" fill="#3F89CA" fill-opacity="0.5"/>
<path d="M110.508 29.1705C110.582 29.2228 110.643 29.286 110.708 29.3447C110.641 29.2858 110.58 29.2204 110.508 29.1705Z" fill="#3F89CA" fill-opacity="0.5"/>
<path d="M109.805 28.8378C109.87 28.8552 109.927 28.8922 109.99 28.9141C109.924 28.8922 109.87 28.8552 109.805 28.8378Z" fill="#3F89CA" fill-opacity="0.5"/>
<path d="M105.88 91.8529L72.9959 103.066V106.109C72.9959 106.782 72.6845 107.418 72.1529 107.83C71.9613 107.978 71.7477 108.091 71.5234 108.17L108.759 95.4709C109.641 95.1703 110.234 94.3404 110.234 93.4103V61.2887L105.877 62.7981V91.8526H105.88V91.8529Z" fill="#3F89CA" fill-opacity="0.5"/>
<path d="M72.9984 106.109V103.066L70.1167 104.048C68.9776 104.436 68.3698 105.673 68.7576 106.812C69.0668 107.719 69.912 108.289 70.8182 108.289C71.0513 108.289 71.2888 108.252 71.5219 108.172H71.524C71.7483 108.095 71.9619 107.982 72.1535 107.832C72.687 107.416 72.9984 106.78 72.9984 106.109Z" fill="#3F89CA" fill-opacity="0.5"/>
<path d="M108.065 57.5582C106.863 57.5582 105.887 58.5317 105.887 59.7365V62.7969L110.243 61.2875V59.7365C110.243 58.532 109.267 57.5582 108.065 57.5582Z" fill="#3F89CA" fill-opacity="0.5"/>
<path d="M110.703 29.3461C110.834 29.4638 110.954 29.5967 111.056 29.7491C110.954 29.5967 110.838 29.4659 110.703 29.3461Z" fill="#3F89CA" fill-opacity="0.5"/>
<path d="M19.8378 29.189C19.7614 29.2412 19.67 29.2651 19.6025 29.3262L0.722343 46.3091C-0.0552863 47.0061 -0.227319 48.1626 0.315039 49.0558C0.720199 49.7243 1.43459 50.1056 2.17953 50.1056C2.43222 50.1056 2.68919 50.0598 2.93974 49.9706L14.4863 45.6708C15.6147 45.2504 16.1873 43.998 15.7671 42.8698C15.3467 41.7393 14.0921 41.1731 12.9661 41.5868L12.1494 41.8918L18.8844 35.8342V30.9441C18.8793 30.204 19.2737 29.581 19.8378 29.189Z" fill="#3F89CA" fill-opacity="0.5"/>
<path d="M109.992 28.9156C110.173 28.9789 110.347 29.0571 110.506 29.1683C110.349 29.0593 110.175 28.9808 109.992 28.9156Z" fill="#3F89CA" fill-opacity="0.5"/>
<path d="M23.2389 30.9455V32.5246L57.8846 21.1547L101.448 31.3528L70.1129 42.2198C70.0912 42.2263 70.0759 42.2461 70.0542 42.2547C70.2959 42.1633 70.5529 42.1 70.8254 42.1C72.0278 42.1 73.0037 43.0736 73.0037 44.2783V45.8269L108.275 33.5965L107.377 32.0305C106.78 30.9871 107.142 29.6542 108.185 29.0575C108.697 28.7678 109.277 28.7112 109.806 28.8439C109.791 28.8396 109.78 28.8308 109.765 28.8265L58.281 16.7745C57.8911 16.6853 57.4838 16.7027 57.1049 16.8246L20.3811 28.8763C20.3527 28.8852 20.3331 28.909 20.3047 28.92C20.5421 28.8308 20.7926 28.7675 21.0606 28.7675C22.2651 28.7675 23.2389 29.741 23.2389 30.9455Z" fill="#3F89CA" fill-opacity="0.5"/>
<path d="M69.3242 42.7022C69.4113 42.6194 69.5246 42.5672 69.6249 42.4996C69.5244 42.5672 69.4113 42.6194 69.3242 42.7022Z" fill="#3F89CA" fill-opacity="0.5"/>
<path d="M68.6523 44.21C68.6566 44.0444 68.7067 43.8941 68.7483 43.7394C68.7067 43.8965 68.6588 44.0465 68.6523 44.21Z" fill="#3F89CA" fill-opacity="0.5"/>
<path d="M69.0786 43.0374C68.998 43.1507 68.9045 43.2531 68.8477 43.3793C68.9066 43.2531 69.0001 43.1507 69.0786 43.0374Z" fill="#3F89CA" fill-opacity="0.5"/>
<path d="M23.2355 32.5168V30.9377C23.2355 29.7332 22.2595 28.7594 21.0572 28.7594C20.7892 28.7594 20.5387 28.8226 20.3013 28.9119C20.1314 28.9751 19.9832 29.0796 19.835 29.182C19.2709 29.5762 18.8789 30.197 18.8789 30.9377V35.8277L22.1722 32.8654L23.2355 32.5168Z" fill="#3F89CA" fill-opacity="0.5"/>
<path d="M70.8293 42.0992C70.5549 42.0992 70.2979 42.1625 70.0581 42.2539C69.9013 42.315 69.7706 42.4106 69.6377 42.5023C69.5374 42.5698 69.4265 42.622 69.337 42.7048C69.2346 42.8029 69.1671 42.9248 69.0865 43.0382C69.0058 43.1515 68.9144 43.2539 68.8555 43.3801C68.8054 43.4935 68.7922 43.6175 68.7617 43.7373C68.7204 43.8919 68.6725 44.0422 68.6658 44.2078C68.6569 44.467 68.681 44.7306 68.7724 44.9898C69.1666 46.1267 70.4038 46.7302 71.5431 46.3336L73.0067 45.8261V44.2775C73.0072 43.0728 72.0316 42.0992 70.8293 42.0992Z" fill="#3F89CA" fill-opacity="0.5"/>
<path d="M108.186 29.0523C107.142 29.6491 106.781 30.9822 107.378 32.0256L108.275 33.5916L109.983 32.9991C110.898 32.6811 111.494 31.7968 111.444 30.8297C111.422 30.4267 111.272 30.0652 111.059 29.745C110.956 29.5925 110.839 29.4596 110.706 29.342C110.64 29.2809 110.577 29.2179 110.505 29.1678C110.346 29.059 110.172 28.9784 109.991 28.9151C109.928 28.8934 109.874 28.8564 109.806 28.8387C109.277 28.7037 108.698 28.7602 108.186 29.0523Z" fill="#3F89CA" fill-opacity="0.5"/>
</svg>
