<svg width="70" height="70" viewBox="0 0 70 70" fill="none" xmlns="http://www.w3.org/2000/svg">
<g clip-path="url(#clip0)">
<path d="M56.9558 12.1648L48.7891 0.498203C48.571 0.185527 48.214 0 47.8337 0H22.1669C21.7866 0 21.4296 0.185527 21.2114 0.498203L13.0448 12.1648C12.7193 12.628 12.7753 13.258 13.1755 13.6582L34.1755 34.6582C34.403 34.8857 34.7017 35 35.0003 35C35.299 35 35.5976 34.8857 35.8251 34.6582L56.8251 13.6582C57.2242 13.258 57.2801 12.628 56.9558 12.1648ZM35.0003 32.1837L15.5169 12.7004L22.7748 2.33338H47.2258L54.4825 12.7004L35.0003 32.1837Z" fill="#0F4C81"/>
<path d="M54.8334 11.6665H14V13.9999H54.8334V11.6665Z" fill="#0F4C81"/>
<path d="M42.0793 12.4098L35 30.6144L27.9207 12.4098L25.7461 13.2557L33.9127 34.2557C34.0865 34.7048 34.5182 35 35 35C35.4807 35 35.9124 34.7048 36.0863 34.2557L44.2529 13.2557L42.0793 12.4098Z" fill="#0F4C81"/>
<path d="M46.7491 0.733814L42.884 10.3974L35.9552 0.499341C35.5177 -0.12478 34.4793 -0.12478 34.043 0.499341L27.1143 10.3974L23.249 0.733814L21.0825 1.60061L25.7491 13.2672C25.909 13.6651 26.2729 13.9439 26.6988 13.9929C27.127 14.0467 27.5434 13.854 27.7884 13.5029L34.9997 3.20131L42.2109 13.5018C42.4302 13.8168 42.7884 14 43.1664 14C43.2107 14 43.2552 13.9977 43.3005 13.9931C43.7252 13.9441 44.0893 13.6652 44.2491 13.2674L48.9157 1.60075L46.7491 0.733814Z" fill="#0F4C81"/>
<path d="M8.16662 11.6665H0V13.9999H8.16662V11.6665Z" fill="#0F4C81"/>
<path d="M6.47987 0.19426L5.18555 2.13586L12.1861 6.80263L13.4804 4.86102L6.47987 0.19426Z" fill="#0F4C81"/>
<path d="M12.1871 18.865L5.18652 23.5317L6.48085 25.4733L13.4814 20.8066L12.1871 18.865Z" fill="#0F4C81"/>
<path d="M70.0001 11.6665H61.8335V13.9999H70.0001V11.6665Z" fill="#0F4C81"/>
<path d="M63.5216 0.197741L56.521 4.8645L57.8153 6.80611L64.8159 2.13935L63.5216 0.197741Z" fill="#0F4C81"/>
<path d="M57.8168 18.857L56.5225 20.7986L63.523 25.4653L64.8174 23.5237L57.8168 18.857Z" fill="#0F4C81"/>
<path d="M67.9421 38.8374C66.3635 37.7815 64.3255 37.7815 62.734 38.8467L46.3028 50.1669H27.4167C26.4519 50.1669 25.6667 49.3817 25.6667 48.4169C25.6667 47.452 26.4519 46.6669 27.4167 46.6669H36.1656C36.1679 46.6669 36.1703 46.6669 36.1715 46.6669C40.172 46.6669 43.5576 43.8062 44.2262 39.8524L44.4128 38.6858C44.4665 38.3486 44.3696 38.0045 44.1479 37.7443C43.9263 37.4831 43.6019 37.3336 43.2601 37.3336H22.5972C21.3092 37.3348 20.041 37.7699 19.0237 38.5599L9.78369 45.7465L11.2164 47.5875L20.4551 40.402C21.0653 39.9295 21.826 39.6682 22.5983 39.667H41.8869C41.3351 42.3831 38.9632 44.3336 36.1703 44.3336C36.169 44.3336 36.1679 44.3336 36.1667 44.3336H27.4167C25.1651 44.3336 23.3333 46.1652 23.3333 48.417C23.3333 50.6686 25.165 52.5004 27.4167 52.5004H46.6667C46.9035 52.5004 47.1333 52.4281 47.3282 52.2939L64.0453 40.7766C64.8364 40.2493 65.856 40.2481 66.64 40.7743C67.2793 41.2059 67.6632 41.9246 67.6666 42.6888V43.6991C67.663 44.4481 67.2968 45.1552 66.6901 45.5856L48.5335 58.4024L18.4463 64.1867L18.8874 66.4792L49.2195 60.6458C49.3829 60.6144 49.5381 60.5478 49.6733 60.4533L68.0401 47.4881C69.2592 46.6201 69.9919 45.2072 70.0001 43.7035V42.6826C69.9919 41.1404 69.2242 39.7031 67.9421 38.8374Z" fill="#0F4C81"/>
<path d="M20.8783 65.9785L9.21172 42.6451C9.06119 42.3453 8.79049 42.1248 8.46742 42.0385C8.14422 41.9533 7.79887 42.0105 7.5201 42.196L0.520098 46.8626C0.195801 47.0796 0.000976589 47.4437 0.000976589 47.8333V68.8333C0.000839871 69.4785 0.523516 69.9999 1.16746 69.9999H15.1675C15.3483 69.9999 15.528 69.958 15.6901 69.8774L20.3568 67.5441C20.9332 67.256 21.1665 66.5548 20.8783 65.9785ZM14.8921 67.6666H2.33422V48.4574L7.71492 44.8699L18.2687 65.9785L14.8921 67.6666Z" fill="#0F4C81"/>
<path d="M8.16651 58.3335C6.23686 58.3335 4.6665 59.9038 4.6665 61.8335C4.6665 63.7632 6.23686 65.3335 8.16651 65.3335C10.0962 65.3335 11.6665 63.7632 11.6665 61.8335C11.6665 59.9038 10.0962 58.3335 8.16651 58.3335ZM8.16651 63.0001C7.52365 63.0001 6.99988 62.4774 6.99988 61.8335C6.99988 61.1896 7.52365 60.6669 8.16651 60.6669C8.80936 60.6669 9.33313 61.1896 9.33313 61.8335C9.33326 62.4774 8.80936 63.0001 8.16651 63.0001Z" fill="#0F4C81"/>
</g>
<defs>
<clipPath id="clip0">
<rect width="70" height="70" fill="white"/>
</clipPath>
</defs>
</svg>
