<svg width="70" height="70" viewBox="0 0 70 70" fill="none" xmlns="http://www.w3.org/2000/svg">
<g clip-path="url(#clip0)">
<path d="M64.3548 15.0645H62.0968V6.95566L59.0349 -1.20943C58.6342 -2.27947 57.5955 -3 56.4516 -3C55.3077 -3 54.2691 -2.27947 53.8683 -1.21053L50.8064 6.95566V15.0645H46.2903V-3H7.90323V15.0645H5.64516C2.5326 15.0645 0 17.5971 0 20.7097V54.5806C0 57.6932 2.5326 60.2258 5.64516 60.2258H20.3226V64.7419H15.8065V67H54.1936V64.7419H49.6774V60.2258H64.3548C67.4674 60.2258 70 57.6932 70 54.5806V20.7097C70 17.5971 67.4674 15.0645 64.3548 15.0645ZM55.3226 8.29032V37.6452H53.0645V8.29032H55.3226ZM53.0645 39.9032H59.8387V43.2903C59.8387 45.1575 58.3188 46.6774 56.4516 46.6774C54.5844 46.6774 53.0645 45.1575 53.0645 43.2903V39.9032ZM59.8387 37.6452H57.5806V8.29032H59.8387V37.6452ZM55.983 -0.41778C56.1286 -0.806436 56.7736 -0.807539 56.9191 -0.416677L59.3387 6.03226H53.5645L55.983 -0.41778ZM10.1613 -0.741935H44.0323V46.6774H10.1613V-0.741935ZM5.64516 17.3226H7.90323V48.9355H46.2903V17.3226H50.8064V43.2903C50.8064 46.4029 53.3391 48.9355 56.4516 48.9355C59.5642 48.9355 62.0968 46.4029 62.0968 43.2903V17.3226H64.3548C66.222 17.3226 67.7419 18.8425 67.7419 20.7097V51.1936H2.25806V20.7097C2.25806 18.8425 3.77796 17.3226 5.64516 17.3226ZM47.4194 64.7419H22.5806V60.2258H47.4194V64.7419ZM64.3548 57.9677H5.64516C3.77796 57.9677 2.25806 56.4478 2.25806 54.5806V53.4516H67.7419V54.5806C67.7419 56.4478 66.222 57.9677 64.3548 57.9677Z" fill="#0F4C81"/>
<path d="M39.5164 25.2457C39.5164 22.739 37.8328 20.5069 35.4226 19.8161L31.6132 18.7279V18.1529C33.6579 16.7228 35.0003 14.3551 35.0003 11.6769V9.41885C35.0003 5.06204 31.455 1.51562 27.0971 1.51562C22.7392 1.51562 19.1939 5.06204 19.1939 9.41885V11.6769C19.1939 14.3551 20.5362 16.7239 22.581 18.1529V18.7279L18.7716 19.8172C16.3614 20.5057 14.6777 22.739 14.6777 25.2457V28.6124H39.5164V25.2457ZM24.839 19.2472C25.5546 19.4616 26.3126 19.5801 27.0971 19.5801C27.8816 19.5801 28.6396 19.4616 29.3552 19.2472V19.5801C29.3552 20.8255 28.3424 21.8382 27.0971 21.8382C25.8517 21.8382 24.839 20.8255 24.839 19.5801V19.2472ZM21.4519 11.6769V9.41885C21.4519 6.30629 23.9845 3.77369 27.0971 3.77369C30.2096 3.77369 32.7423 6.30629 32.7423 9.41885V11.6769C32.7423 14.7895 30.2096 17.3221 27.0971 17.3221C23.9845 17.3221 21.4519 14.7895 21.4519 11.6769ZM37.2584 26.3543H16.9358V25.2457C16.9358 23.7418 17.9463 22.4016 19.3923 21.9882L22.834 21.0052C23.4332 22.7958 25.1075 24.0963 27.0971 24.0963C29.0867 24.0963 30.7609 22.7947 31.3602 21.0052L34.8019 21.9871C36.2479 22.4016 37.2584 23.7418 37.2584 25.2457V26.3543Z" fill="#0F4C81"/>
<path d="M32.7422 33.1289H41.7744V35.387H32.7422V33.1289Z" fill="#0F4C81"/>
<path d="M32.7422 37.6445H41.7744V39.9026H32.7422V37.6445Z" fill="#0F4C81"/>
<path d="M32.7422 42.1621H41.7744V44.4202H32.7422V42.1621Z" fill="#0F4C81"/>
<path d="M12.4199 44.4194H30.4844V32H12.4199V44.4194ZM14.678 34.2581H28.2264V42.1613H14.678V34.2581Z" fill="#0F4C81"/>
</g>
<defs>
<clipPath id="clip0">
<rect width="70" height="70" fill="white"/>
</clipPath>
</defs>
</svg>
