<svg width="70" height="70" viewBox="0 0 70 70" fill="none" xmlns="http://www.w3.org/2000/svg">
<g clip-path="url(#clip0)">
<path d="M69.2352 50.3889L62.7191 48.0171C62.1187 47.7998 61.4562 48.1102 61.2389 48.7106L60.8433 49.7958L53.2946 47.0431C53.1049 46.972 52.8995 46.9545 52.7003 46.9912L36.9945 49.7648C35.5707 50.0181 34.3479 50.9222 33.6865 52.2077L26.4819 49.5797C25.3313 49.1564 24.0582 49.2129 22.9494 49.736C21.5403 50.3934 20.5556 51.7128 20.3259 53.2505C20.0381 55.4761 21.3563 57.5974 23.4798 58.3248L47.2119 66.9627C47.3383 67.0095 47.4726 67.0338 47.6074 67.0332C47.7333 67.0332 47.858 67.0123 47.9771 66.9723L54.6049 64.7348L55.3103 64.991L54.9147 66.0773C54.6974 66.6777 55.0078 67.3407 55.6082 67.558L62.1254 69.9292C62.2513 69.9761 62.385 70.0003 62.5193 69.9998C63.0052 70.0003 63.4397 69.6962 63.6056 69.2396L69.9298 51.8623C70.1426 51.2636 69.8322 50.6056 69.2352 50.3889ZM54.2488 62.4183L47.621 64.6558L24.2699 56.1556C23.1898 55.7961 22.5007 54.7375 22.6102 53.6038C22.7078 52.913 23.1119 52.3036 23.7101 51.9441C24.3082 51.5852 25.0362 51.5158 25.6914 51.7551L33.1899 54.4835C33.1938 54.6968 33.2108 54.9096 33.2418 55.1201C33.695 57.6267 36.0831 59.3005 38.5937 58.8705L51.605 56.5765L51.2027 54.2996L38.1976 56.594C36.9454 56.8068 35.7536 55.9761 35.5199 54.7273C35.472 54.4638 35.4737 54.1929 35.5256 53.9299C35.534 53.8916 35.5408 53.8532 35.5453 53.8142C35.5606 53.7155 35.5871 53.619 35.6249 53.5265C35.9087 52.7505 36.5837 52.1845 37.3968 52.0389L52.7951 49.3235L60.0533 51.9639L56.1003 62.8274L55.014 62.4335C54.768 62.3421 54.4982 62.3365 54.2488 62.4183ZM61.8235 67.3661L57.4795 65.7849L63.0125 50.5808L67.3571 52.1614L61.8235 67.3661Z" fill="#0F4C81"/>
<path d="M27.1439 18.6423C27.517 20.0079 28.2048 21.2675 29.1523 22.3188C29.1348 22.4113 29.1224 22.5045 29.1168 22.5987V28.8924C29.1168 30.8071 30.6686 32.3596 32.5839 32.3596V43.9166C32.5811 44.3568 32.8294 44.7603 33.2227 44.9566L35.5341 46.1124C35.8597 46.2749 36.2423 46.2749 36.5674 46.1124L38.8788 44.9566C39.2727 44.7603 39.5204 44.3568 39.5181 43.9166V32.3596C41.4328 32.3596 42.9852 30.8071 42.9852 28.8924V22.5987C42.979 22.4977 42.9661 22.3972 42.9469 22.2979C43.7188 21.4486 44.3204 20.4588 44.7188 19.3821C46.4253 19.6688 48.1334 18.885 49.0296 17.4048C50.1283 15.5871 49.8275 13.2515 48.3039 11.7718L38.8985 2.36876C37.385 0.847377 35.3253 -0.00585942 33.1787 -0.000216326H21.0268C20.87 -0.000780636 20.7153 0.031385 20.5714 0.0934592L12.7055 3.4669H11.7812V1.15549C11.7812 0.517256 11.2637 -0.000216326 10.6255 -0.000216326H1.37983C0.741593 -0.000216326 0.224121 0.517256 0.224121 1.15549V19.6468C0.224121 20.285 0.741593 20.8025 1.37983 20.8025H10.6255C11.2637 20.8025 11.7812 20.285 11.7812 19.6468V17.3354H11.9499C12.7772 20.109 16.4937 21.9582 19.8711 21.9582C22.6729 22.0158 25.3494 20.7957 27.1439 18.6423ZM9.46977 18.4911H2.53553V2.3112H9.46977V18.4911ZM37.2067 43.2022L36.051 43.7801L34.8953 43.2022V32.3596H37.2067V43.2022ZM40.6738 28.8924C40.6738 29.5307 40.1564 30.0481 39.5181 30.0481H32.5839C31.9457 30.0481 31.4282 29.5307 31.4282 28.8924V24.1748C32.2052 24.6274 33.0455 24.9626 33.9207 25.1686C34.3203 26.1409 35.3219 26.7244 36.3642 26.5923C37.407 26.4608 38.2321 25.6465 38.3771 24.6054C38.5221 23.5648 37.951 22.5558 36.9844 22.1439C36.0172 21.7325 34.8942 22.0197 34.2447 22.8459C33.5929 22.6749 32.9693 22.4091 32.3954 22.0564C33.5094 21.3809 34.7565 20.9532 36.051 20.8025C37.7101 21.0356 39.2924 21.6507 40.6738 22.5987V28.8924ZM41.5344 20.4244C39.8821 19.3618 38.0047 18.6999 36.051 18.4911C34.1008 18.6988 32.2261 19.3596 30.5761 20.4199C29.8713 19.5226 29.4046 18.4617 29.2195 17.3354H34.8953C36.5882 17.3523 38.148 16.4189 38.9329 14.919L42.1693 18.1548C42.2985 18.2755 42.435 18.3878 42.5784 18.4911C42.3402 19.1891 41.9875 19.8426 41.5344 20.4244ZM39.4634 12.1798C39.3556 11.2341 38.9549 10.3453 38.3184 9.63706C40.9323 10.545 42.7567 12.9197 42.9599 15.6791L39.4634 12.1798ZM25.6497 16.1797C25.6497 17.9296 22.7869 19.6468 19.8711 19.6468C16.9553 19.6468 14.0926 17.9296 14.0926 16.1797C14.0926 15.5414 13.5751 15.024 12.9369 15.024H11.7812V5.77832H12.9369C13.0932 5.77888 13.2484 5.74671 13.3923 5.68464L21.2576 2.3112H33.173C34.708 2.30555 36.1819 2.91501 37.2643 4.003L46.6674 13.4061C47.4275 14.116 47.5985 15.2559 47.0799 16.1577C46.6939 16.7688 46.019 17.1356 45.2967 17.1271C45.278 17.1271 45.2605 17.1271 45.2419 17.1271C45.2769 16.8128 45.295 16.4962 45.2967 16.1797C45.291 11.0761 41.1546 6.93966 36.051 6.93402C34.498 6.93628 32.971 7.33412 31.6138 8.08973H22.1825V10.4011H34.8953C36.1718 10.4011 37.2067 11.4361 37.2067 12.7126C37.2067 13.989 36.1718 15.024 34.8953 15.024H26.8054C26.1671 15.024 25.6497 15.5414 25.6497 16.1797Z" fill="#0F4C81"/>
</g>
<defs>
<clipPath id="clip0">
<rect width="70" height="70" fill="white"/>
</clipPath>
</defs>
</svg>
