<svg width="24" height="23" viewBox="0 0 24 23" fill="none" xmlns="http://www.w3.org/2000/svg">
<path d="M17.2289 0.51001C15.1859 0.51001 13.2734 1.37491 12 2.82404C10.7266 1.37486 8.81417 0.51001 6.77106 0.51001C3.0375 0.51001 0 3.35003 0 6.84095C0 9.57449 1.7433 12.7363 5.18136 16.2384C7.82722 18.9335 10.7055 21.0203 11.5246 21.5957L11.9998 21.9296L12.4751 21.5958C13.2942 21.0204 16.1726 18.9336 18.8185 16.2385C22.2567 12.7364 24 9.57454 24 6.84095C24 3.35003 20.9625 0.51001 17.2289 0.51001ZM17.6527 15.238C15.4764 17.4547 13.135 19.2467 11.9998 20.0726C10.8647 19.2467 8.52343 17.4547 6.34713 15.2379C3.23003 12.0627 1.58242 9.15908 1.58242 6.84095C1.58242 4.16591 3.91005 1.98957 6.77106 1.98957C8.65382 1.98957 10.3923 2.94902 11.308 4.49353L12 5.66071L12.692 4.49353C13.6077 2.94907 15.3461 1.98957 17.2289 1.98957C20.09 1.98957 22.4176 4.16586 22.4176 6.84095C22.4176 9.15918 20.7699 12.0628 17.6527 15.238Z" fill="#3F89CA"/>
</svg>
