<svg width="24" height="23" viewBox="0 0 24 23" fill="none" xmlns="http://www.w3.org/2000/svg">
<path d="M17.2289 0C15.1859 0 13.2734 0.928719 12 2.48477C10.7266 0.928666 8.81417 0 6.77106 0C3.0375 0 0 3.04957 0 6.79807C0 9.73331 1.7433 13.1284 5.18136 16.8889C7.82722 19.7829 10.7055 22.0237 11.5246 22.6415L11.9998 23L12.4751 22.6416C13.2942 22.0237 16.1726 19.783 18.8185 16.8891C22.2567 13.1285 24 9.73336 24 6.79807C24 3.04957 20.9625 0 17.2289 0ZM17.6527 15.8146C21 13.2902 24.6352 5.22809 23.5 6.11492C22.3649 5.22809 22.1763 4.39513 20 2.01478C17.7099 1.23489 16 0.477232 11.9998 3.03982C6 -0.547803 -0.561901 2.40091 1.58242 6.79807C1.58242 3.92565 3.91005 1.58873 6.77106 1.58873C8.65382 1.58873 10.3923 2.61897 11.308 4.27745L12 5.53074L12.692 4.27745C13.6077 2.61902 15.3461 1.58873 17.2289 1.58873C20.09 1.58873 22.4176 3.92559 22.4176 6.79807C22.4176 9.28735 20.7699 12.4052 17.6527 15.8146Z" fill="#DB4446"/>
</svg>
