<svg width="11" height="11" viewBox="0 0 11 11" fill="none" xmlns="http://www.w3.org/2000/svg">
<path d="M10.5697 0.921756H4.01613C3.83596 0.386625 3.3298 0 2.73469 0C2.13958 0 1.63342 0.386625 1.45324 0.921756H0.430285C0.192653 0.921756 0 1.11441 0 1.35204C0 1.58967 0.192653 1.78233 0.430285 1.78233H1.45327C1.63345 2.31746 2.13961 2.70408 2.73472 2.70408C3.32983 2.70408 3.83599 2.31746 4.01616 1.78233H10.5697C10.8073 1.78233 11 1.58967 11 1.35204C11 1.11441 10.8073 0.921756 10.5697 0.921756ZM2.73469 1.84351C2.4637 1.84351 2.24322 1.62303 2.24322 1.35204C2.24322 1.08105 2.4637 0.860569 2.73469 0.860569C3.00568 0.860569 3.22616 1.08105 3.22616 1.35204C3.22616 1.62303 3.00568 1.84351 2.73469 1.84351Z" fill="#0F4C81"/>
<path d="M10.5697 4.60901H9.5467C9.36652 4.07388 8.86034 3.68726 8.26525 3.68726C7.67017 3.68726 7.16401 4.07388 6.98384 4.60901H0.430285C0.192653 4.60901 0 4.80166 0 5.0393C0 5.27693 0.192653 5.46958 0.430285 5.46958H6.98384C7.16401 6.00471 7.6702 6.39134 8.26528 6.39134C8.86037 6.39134 9.36655 6.00471 9.54673 5.46958H10.5697C10.8073 5.46958 11 5.27693 11 5.0393C11 4.80166 10.8073 4.60901 10.5697 4.60901ZM8.26528 5.53077C7.99429 5.53077 7.77381 5.31029 7.77381 5.0393C7.77381 4.7683 7.99429 4.54783 8.26528 4.54783C8.53627 4.54783 8.75675 4.7683 8.75675 5.0393C8.75675 5.31029 8.53627 5.53077 8.26528 5.53077Z" fill="#0F4C81"/>
<path d="M10.5697 8.29651H5.85967C5.6795 7.76138 5.17334 7.37476 4.57823 7.37476C3.98312 7.37476 3.47696 7.76138 3.29678 8.29651H0.430285C0.192653 8.29651 0 8.48916 0 8.7268C0 8.96443 0.192653 9.15708 0.430285 9.15708H3.29678C3.47696 9.69221 3.98312 10.0788 4.57823 10.0788C5.17334 10.0788 5.6795 9.69221 5.85967 9.15708H10.5697C10.8073 9.15708 11 8.96443 11 8.7268C11 8.48916 10.8073 8.29651 10.5697 8.29651ZM4.57823 9.2183C4.30724 9.2183 4.08676 8.99782 4.08676 8.72683C4.08676 8.45583 4.30724 8.23535 4.57823 8.23535C4.84922 8.23535 5.0697 8.4558 5.0697 8.7268C5.0697 8.99779 4.84922 9.2183 4.57823 9.2183Z" fill="#0F4C81"/>
</svg>
