<svg width="24" height="23" viewBox="0 0 24 23" fill="none" xmlns="http://www.w3.org/2000/svg">
<path d="M17.2289 0C15.1859 0 13.2734 0.906036 12 2.42409C10.7266 0.905985 8.81417 0 6.77106 0C3.0375 0 0 2.97509 0 6.63204C0 9.49558 1.7433 12.8077 5.18136 16.4765C7.82722 19.2998 10.7055 21.4858 11.5246 22.0885L11.9998 22.4383L12.4751 22.0886C13.2942 21.4858 16.1726 19.2999 18.8185 16.4766C22.2567 12.8078 24 9.49564 24 6.63204C24 2.97509 20.9625 0 17.2289 0ZM17.6527 15.4284C15.4764 17.7506 13.135 19.6278 11.9998 20.493C10.8647 19.6278 8.52343 17.7506 6.34713 15.4283C3.23003 12.1021 1.58242 9.06042 1.58242 6.63204C1.58242 3.82977 3.91005 1.54993 6.77106 1.54993C8.65382 1.54993 10.3923 2.55501 11.308 4.17298L12 5.39566L12.692 4.17298C13.6077 2.55506 15.3461 1.54993 17.2289 1.54993C20.09 1.54993 22.4176 3.82972 22.4176 6.63204C22.4176 9.06052 20.7699 12.1023 17.6527 15.4284Z" fill="#0F4C81"/>
</svg>
