<svg xmlns="http://www.w3.org/2000/svg" viewBox="0 0 559.33 176.26"><defs><style>.cls-1{fill:#3a598f;}</style></defs><g id="Layer_2" data-name="Layer 2"><g id="Layer_1-2" data-name="Layer 1"><path class="cls-1" d="M84.71,139.92c17.27-17.18,33.62-35.1,50.68-52.62L120,71.21c-2.49,2.49-4.82,4.78-7.09,7.13-4.55,4.71-9,9.47-13.59,14.18s-9.05,9.36-13.59,14c-1,1.09-1.27,1.15-2.34.09q-5-5-9.94-10c-2.14-2.2-4.19-4.48-6.28-6.74a11.53,11.53,0,0,1-.84-1c-1.06-1.41-1.09-1.45.08-2.72,3.47-3.75,7-7.47,10.47-11.2Q84.26,67,91.67,59.13c3.15-3.34,6.35-6.64,9.51-10Q108.85,41.09,116.5,33c.74-.78,1.43-1.6,2.39-2.67,1,1.09,1.71,2,2.49,2.8,5.43,5.79,10.84,11.59,16.3,17.36,4.5,4.76,9.1,9.42,13.56,14.22,4.83,5.19,9.55,10.49,14.32,15.74a9.12,9.12,0,0,1,2.11,5.71c.22,2.74.21,5.54-1.15,8A18,18,0,0,1,164,97.48q-4.65,5.14-9.37,10.24-5.87,6.3-11.78,12.56c-3.29,3.49-6.63,6.93-9.93,10.4q-7.83,8.25-15.65,16.5c-3.08,3.24-6.16,6.48-9.28,9.69q-7.09,7.29-14.25,14.54c-.87.88-1.79,1.71-2.7,2.55-2.11,2-4.75,2.06-7.45,2.28-3.69.29-6.11-1.8-8.41-4.06-5.61-5.5-11.11-11.11-16.62-16.72-3-3-5.87-6.09-8.78-9.16-5.44-5.78-10.85-11.59-16.3-17.35-3.89-4.12-7.87-8.16-11.75-12.29C16.41,111.05,11.19,105.4,6,99.75a50.9,50.9,0,0,1-3.74-4.19A10.37,10.37,0,0,1,.59,92.18a15.06,15.06,0,0,1,0-8.47,10.92,10.92,0,0,1,2-3.59C4.35,78,6.16,76,8,74q8.6-9.24,17.25-18.42c3.77-4,7.6-8,11.4-12,4.12-4.33,8.23-8.68,12.35-13,4.71-4.94,9.4-9.9,14.16-14.79,4.25-4.38,8.61-8.67,12.88-13A9.27,9.27,0,0,1,82.92,0c3.21-.07,6.27.19,8.73,2.49S96.3,7,98.59,9.28c1.3,1.29,2.52,2.67,3.83,4,.54.53.62.89.07,1.47q-8.17,8.52-16.3,17.06Q78.36,40,70.57,48.28c-2.86,3-5.76,6-8.62,9-5.06,5.32-10.14,10.62-15.15,16-3.64,3.91-7.24,7.85-10.73,11.89-2.13,2.46-2.27,1.82.22,4.48Q47.87,102,59.59,114.22c5.54,5.8,11.14,11.54,16.72,17.31,2.23,2.29,4.45,4.58,6.69,6.86C83.5,138.9,84.06,139.34,84.71,139.92Z"/><path class="cls-1" d="M489.25,30.27l11.54.41V95.92c-.42,0-.73.1-1,.1-2.72,0-5.44,0-8.15,0a2.21,2.21,0,0,1-1.54-.8q-11-15.39-21.91-30.83l-8.87-12.49a10.68,10.68,0,0,0-.92-1L458,51V95.93H446.18V30.41c3.61,0,7,0,10.46,0,.32,0,.71.45.94.78q5.3,7.47,10.53,15l19.61,28.06c.29.42.44.94.71,1.38.13.21.44.53.57.49a1.37,1.37,0,0,0,.64-.6,1.39,1.39,0,0,0,.06-.71q-.21-18.21-.44-36.42C489.22,35.7,489.25,33,489.25,30.27Z"/><path class="cls-1" d="M336.72,95.6l-12.16.46q.18-32.94.37-66h1.32c9.23,0,18.47-.05,27.7.2A22.19,22.19,0,0,1,368.63,36c5.39,4.84,6.19,10.8,5.14,17.43a17.6,17.6,0,0,1-4.54,9.7,29.62,29.62,0,0,1-6.13,4.28c-1.36.81-1.58,1-.84,2.43q5.89,11,11.76,22c.67,1.26,1.34,2.52,2.12,4-1.51,0-2.83,0-4.16,0-2.51,0-5-.23-7.53-.15a2.78,2.78,0,0,1-2.84-1.86q-6-11.64-12.05-23.24a1.87,1.87,0,0,0-1.43-.7c-3,0-6.07.09-9.11,0-2.16,0-2.13-.09-2.13,2,0,4.88,0,9.75,0,14.62,0,2.4,0,4.79,0,7.19C336.88,94.36,336.78,95,336.72,95.6Zm.21-45.3h0c0,3.19,0,6.39,0,9.58,0,.95.25,1.25,1.21,1.24,3.68,0,7.36.09,11,0a20.81,20.81,0,0,0,5.72-.94c3.47-1.17,6.07-3.4,6.65-7.25a16.9,16.9,0,0,0,.05-4.38,9.51,9.51,0,0,0-9.29-8.68c-4.74-.27-9.5-.15-14.25-.23-.85,0-1.11.28-1.1,1.11C337,43.91,336.93,47.1,336.93,50.3Z"/><path class="cls-1" d="M227.11,69.78V61.1c.47,0,1-.09,1.48-.1l23.62-.16c.4,0,.91-.11,1.17.09.42.31.94.84.94,1.28,0,2.75-.1,5.49-.2,8.24A30,30,0,0,1,252,81.39,24.45,24.45,0,0,1,237.75,95a32.13,32.13,0,0,1-13.35,2.09c-8.13-.4-15.26-3.1-21.1-9.07-2.88-2.94-4.52-6.44-6-10.09C195,72,194.76,65.8,195,59.53a35.08,35.08,0,0,1,3.9-15.15,26.87,26.87,0,0,1,4.85-6.46,27.5,27.5,0,0,1,7.51-5.66,32.32,32.32,0,0,1,20.55-2.56A26.87,26.87,0,0,1,248.7,40a25.79,25.79,0,0,1,4.52,10c.14.61.29,1.22.43,1.79H241.12a16.44,16.44,0,0,0-3.94-7.29c-2.2-2.67-5.23-3.92-8.38-4.71a16.82,16.82,0,0,0-6.05-.15c-8.91,1.08-13.09,7.24-15.32,15a30.16,30.16,0,0,0,1.44,20.91c2.49,5.6,6.77,9.58,12.92,10.73,4.9.91,9.92.56,14.1-2.58a13.62,13.62,0,0,0,5.5-9.85c.06-.67.08-1.35.15-2,.19-1.85-.08-2.15-2-2.15l-11.15,0Z"/><path class="cls-1" d="M439.42,95.68c-4.19,0-8.06,0-11.93,0a1,1,0,0,1-.72-.57c-1.67-5-3.33-10-4.91-15.09a1.34,1.34,0,0,0-1.51-1.14q-10.8,0-21.59,0A1.66,1.66,0,0,0,397,80.15q-1.74,5.44-3.5,10.9c-.43,1.32-.81,2.66-1.32,4a1.4,1.4,0,0,1-1,.77c-3.8,0-7.59,0-11.51,0,.65-1.9,1.26-3.72,1.9-5.53q4.23-12,8.47-24.1,4.94-14,9.89-28c.83-2.36,1.62-4.74,2.5-7.09.13-.35.59-.82.91-.83,4.31-.05,8.62,0,13,0C424.1,52.12,431.73,73.81,439.42,95.68Zm-20.95-26c-2.93-9-5.84-18-8.74-27h-.55c-2.91,9-5.81,17.89-8.77,27Z"/><path class="cls-1" d="M317.65,95.57c-4.07,0-7.87,0-11.66,0-.36,0-.89-.6-1-1-1.6-4.8-3.18-9.6-4.68-14.42a1.76,1.76,0,0,0-2-1.49c-7.07,0-14.15-.1-21.22-.18-.65,0-1.1,0-1.39.85-1.67,5.19-3.45,10.33-5.23,15.48-.12.36-.55.89-.84.89-3.79.06-7.58,0-11.53,0,.65-1.92,1.24-3.72,1.87-5.5q4.19-11.88,8.38-23.74,5.31-15,10.64-30c.56-1.58,1.15-3.14,1.65-4.73a1.38,1.38,0,0,1,1.59-1.18c3.76.1,7.51.11,11.27.11a1.06,1.06,0,0,1,1.2.83c3.23,9,6.53,18,9.77,27.06,3.67,10.22,7.29,20.46,10.94,30.7ZM288.3,43.29l-.57-.09c-3,8.76-5.9,17.53-8.87,26.37h18Z"/><path class="cls-1" d="M559.33,30.7v9.72c-.44,0-.75.07-1.05.07-5.92,0-11.84,0-17.76,0-1,0-1.34.26-1.34,1.34q0,26.59,0,53.21c0,.23,0,.47,0,.89H527.7c0-.24-.05-.59-.05-.93q0-26.49,0-53c0-1.16-.21-1.56-1.49-1.55-5.76.09-11.52,0-17.27,0h-1.16V30.7Z"/><path class="cls-1" d="M232.74,135.46h-1.39c-6.71,0-13.42,0-20.14,0-1.09,0-1.48.19-1.29,1.4.79,5,4.16,8,9.2,8.21a9.26,9.26,0,0,0,7-2.2,1.28,1.28,0,0,0,.4-.44c.73-2,2.19-1.68,3.71-1.17.6.2,1.22.35,1.94.55a8,8,0,0,1-2.53,3.84,12.3,12.3,0,0,1-6.31,3,18,18,0,0,1-9.22-.55,12.34,12.34,0,0,1-8.34-8.83,17.08,17.08,0,0,1,1-12.46c2.69-5.39,7.78-7.59,13.33-7.29A13.71,13.71,0,0,1,227.8,122c3.5,2.61,4.66,6.33,4.93,10.45C232.79,133.44,232.74,134.39,232.74,135.46Zm-14-3.64c2.64,0,5.28,0,7.91,0,1.1,0,1.4-.31,1.21-1.38a8.14,8.14,0,0,0-7.54-7.15A9.29,9.29,0,0,0,210,130.44c-.29,1.3-.23,1.38,1.06,1.38Z"/><path class="cls-1" d="M357.48,135.46h-1.37c-6.76,0-13.51,0-20.26,0-1.12,0-1.34.33-1.18,1.39.76,4.9,4,7.94,8.95,8.2,3.55.18,6.67-.61,8.61-4a1,1,0,0,1,.87-.26c1.24.28,2.46.63,3.81,1a8,8,0,0,1-2.52,3.84,12.09,12.09,0,0,1-5.85,2.85,18.14,18.14,0,0,1-9.8-.48,12.32,12.32,0,0,1-8.2-8.67,17.06,17.06,0,0,1,1-12.57c2.68-5.41,7.77-7.59,13.32-7.3a13.73,13.73,0,0,1,7.71,2.58c3.5,2.61,4.67,6.32,4.93,10.44C357.54,133.43,357.48,134.38,357.48,135.46Zm-13.87-3.64c2.6,0,5.2,0,7.8,0,1.1,0,1.4-.32,1.21-1.38a8.15,8.15,0,0,0-7.54-7.15,9.29,9.29,0,0,0-10.32,7.13c-.29,1.3-.23,1.38,1.06,1.38Z"/><path class="cls-1" d="M306.65,148.49H302v-3.62c-.17,0-.29,0-.31,0-3.09,4.15-7.34,4.87-12.08,4.09a9.52,9.52,0,0,1-6.7-4c-2.72-4.07-1.34-9.31,3.21-11a47.36,47.36,0,0,1,8.24-1.87c1.57-.29,3.18-.33,4.76-.52,2.77-.33,3.53-1.61,2.61-4.32a5.49,5.49,0,0,0-5.18-3.76c-3.95-.33-7.27.74-9.5,4.27l-4.42-1.44a8.87,8.87,0,0,1,4-4.52,17.36,17.36,0,0,1,14.24-1.17,9.89,9.89,0,0,1,3.25,1.94,7.24,7.24,0,0,1,2.57,5.61C306.7,134.9,306.65,141.64,306.65,148.49Zm-4.72-13.88c-2.87.42-5.66.78-8.44,1.26a24,24,0,0,0-4.6,1.14,3.73,3.73,0,0,0-2.56,3.69,3.83,3.83,0,0,0,2.46,3.77,10.83,10.83,0,0,0,3.32.89c3.66.23,6.93-.62,9-4C302.46,139.22,301.8,136.81,301.93,134.61Z"/><path class="cls-1" d="M260.05,126.07l-4.24,1.12c-2.31-4.23-6.14-4.91-10.78-3.34a5.18,5.18,0,0,0-1.79,1.15c-1.78,1.64-1.62,4.1.53,5.2A33.84,33.84,0,0,0,249.3,132c2.17.64,4.42,1.07,6.54,1.86a6.62,6.62,0,0,1,4.71,6,7,7,0,0,1-3.93,6.89,17.06,17.06,0,0,1-15.56.56,7.84,7.84,0,0,1-4.66-5.85l4.45-1a5.82,5.82,0,0,0,4.46,4.25,11.3,11.3,0,0,0,7.82-.71,5.08,5.08,0,0,0,1.08-.75c2.22-1.92,1.88-4.92-.88-5.94-2.45-.9-5.09-1.29-7.62-2a23.67,23.67,0,0,1-4.39-1.5,6.88,6.88,0,0,1-.75-12.12c3.66-2.53,7.74-2.72,12-2a9.18,9.18,0,0,1,6,3.76C259.1,124.28,259.49,125.11,260.05,126.07Z"/><path class="cls-1" d="M262.54,123.63v-3.58c1.24,0,2.43,0,3.61,0,.82,0,1.17-.21,1.13-1.07-.07-1.68-.1-3.35-.08-5,0-.26.38-.52.59-.77,0,0,.16,0,.24,0,4-.3,4-.3,4,3.64,0,.72,0,1.44-.05,2.15-.09.87.27,1.12,1.09,1.1,1.84,0,3.67,0,5.7,0a30,30,0,0,1-.05,3c0,.22-.6.53-.93.55-1.6,0-3.2,0-4.8,0-.66,0-1,.12-1,.93,0,5.27,0,10.54,0,15.82a7,7,0,0,0,.29,2.23,3.34,3.34,0,0,0,3.3,2.15c.82.06,1.66,0,2.71,0l.93,3.53c-1.43.83-3,.62-4.54.56a7.6,7.6,0,0,1-7.18-5.19,8.37,8.37,0,0,1-.25-2.24c0-5.52,0-11,0-16.54,0-1-.26-1.35-1.28-1.28S263.73,123.63,262.54,123.63Z"/><path class="cls-1" d="M310.74,123.63v-3.58c1.25,0,2.48,0,3.7,0,.79,0,1-.27,1-1,0-1.87,0-3.75,0-5.73h4.72v4.65c0,2.39-.22,2.11,2.11,2.11h4.53v3.58c-1.75,0-3.5.06-5.24,0-1.07,0-1.45.21-1.43,1.37.07,5,.09,10.07,0,15.1-.06,3.84,2.07,5.18,5.76,4.56l.6-.1.94,3.75c-3.48,1.55-8.62.26-10.77-2.62a7.13,7.13,0,0,1-1.23-4.41c0-5.48,0-10.95,0-16.42,0-1-.2-1.29-1.17-1.22C313.15,123.69,312,123.63,310.74,123.63Z"/></g></g></svg>