<svg width="21" height="21" viewBox="0 0 21 21" fill="none" xmlns="http://www.w3.org/2000/svg">
<g clip-path="url(#clip0)">
<path d="M15.0931 21C14.4152 21 13.7431 20.8802 13.0858 20.6414C10.1903 19.5895 7.5027 17.8764 5.31338 15.6871C3.12405 13.4978 1.4109 10.8101 0.359096 7.91462C0.0211004 6.9841 -0.0786455 6.02355 0.0627295 5.05956C0.195164 4.1566 0.54493 3.28001 1.07426 2.52453C1.60592 1.76573 2.31472 1.13461 3.12401 0.699411C3.98703 0.235338 4.92899 0 5.92383 0C6.23324 0 6.50065 0.216185 6.56549 0.518703L7.59551 5.3255C7.64215 5.54316 7.57525 5.76964 7.41788 5.92705L5.65785 7.68704C7.31818 10.9881 10.0123 13.6822 13.3134 15.3425L15.0733 13.5825C15.2307 13.4251 15.4572 13.3583 15.6749 13.4049L20.4817 14.4349C20.7842 14.4997 21.0004 14.7672 21.0004 15.0766C21.0004 16.0714 20.7651 17.0134 20.3009 17.8764C19.8657 18.6857 19.2346 19.3945 18.4758 19.9262C17.7204 20.4555 16.8438 20.8053 15.9408 20.9377C15.6578 20.9792 15.3749 21 15.0931 21V21ZM5.39951 1.34116C4.08726 1.48602 2.92255 2.17382 2.14911 3.27771C1.27937 4.519 1.07655 6.04574 1.59267 7.46655C3.61482 13.0332 7.96726 17.3856 13.5339 19.4078C14.9547 19.9239 16.4815 19.7211 17.7228 18.8514C18.8267 18.0779 19.5145 16.9132 19.6593 15.601L15.749 14.7631L13.9109 16.6011C13.7153 16.7967 13.4181 16.8487 13.1679 16.7311C9.26376 14.8969 6.10355 11.7367 4.26941 7.8326C4.15182 7.58229 4.20374 7.2851 4.39934 7.08955L6.23742 5.25147L5.39951 1.34116Z" fill="#0F4C81"/>
<path d="M20.3436 11.1558C19.9812 11.1558 19.6873 10.862 19.6873 10.4996C19.6873 5.43377 15.566 1.31245 10.5002 1.31245C10.1378 1.31245 9.84399 1.01862 9.84399 0.656223C9.84399 0.293824 10.1378 0 10.5002 0C13.3048 0 15.9415 1.09212 17.9246 3.07523C19.9077 5.05833 20.9998 7.69499 20.9998 10.4996C20.9998 10.862 20.706 11.1558 20.3436 11.1558Z" fill="#0F4C81"/>
<path d="M17.7187 11.1562C17.3563 11.1562 17.0624 10.8623 17.0624 10.4999C17.0624 6.88152 14.1186 3.93769 10.5002 3.93769C10.1378 3.93769 9.84399 3.64387 9.84399 3.28147C9.84399 2.91907 10.1378 2.62524 10.5002 2.62524C14.8423 2.62524 18.3749 6.15783 18.3749 10.4999C18.3749 10.8623 18.0811 11.1562 17.7187 11.1562Z" fill="#0F4C81"/>
<path d="M15.0938 11.1551C14.7314 11.1551 14.4376 10.8612 14.4376 10.4988C14.4376 8.32775 12.6713 6.56147 10.5002 6.56147C10.1378 6.56147 9.84399 6.26765 9.84399 5.90525C9.84399 5.54285 10.1378 5.24902 10.5002 5.24902C13.395 5.24902 15.75 7.60405 15.75 10.4988C15.75 10.8612 15.4562 11.1551 15.0938 11.1551Z" fill="#0F4C81"/>
</g>
<defs>
<clipPath id="clip0">
<rect width="21" height="21" fill="white"/>
</clipPath>
</defs>
</svg>
