<svg width="23" height="23" viewBox="0 0 23 23" fill="none" xmlns="http://www.w3.org/2000/svg">
<path d="M21.991 15.4838L19.497 13.7024C18.5344 13.0149 17.2286 13.123 16.3922 13.9593L14.9307 15.4208C13.0578 14.0936 8.9073 9.94363 7.57901 8.06922L9.04045 6.60782C9.87699 5.77129 9.98503 4.46554 9.29745 3.503L7.51602 1.00903C6.65128 -0.201522 4.90448 -0.347788 3.85084 0.70572L1.54975 3.0068C-0.518186 5.07468 -0.516523 7.87323 1.55438 10.6849C4.83872 15.1441 7.85573 18.161 12.315 21.4454C14.9158 23.3609 17.7751 23.6681 19.9932 21.45L22.2943 19.149C23.3463 18.0969 23.2033 16.3497 21.991 15.4838ZM21.024 17.8784L18.7229 20.1795C17.1271 21.7753 15.1909 21.3321 13.3805 19.9987C9.07918 16.8307 6.16904 13.9206 3.00105 9.61947C1.66817 7.80975 1.22398 5.87339 2.82019 4.27723L5.12137 1.97611C5.39027 1.70721 5.83405 1.7453 6.05404 2.05333L7.83551 4.5473C8.01048 4.79226 7.98294 5.1245 7.7701 5.33734L5.82525 7.2821C5.58025 7.52715 5.49799 7.89119 5.61385 8.21778C6.23337 9.96348 13.0382 16.7671 14.7822 17.386C15.1088 17.502 15.4729 17.4196 15.7179 17.1746L17.6627 15.2298C17.8756 15.017 18.2079 14.9895 18.4528 15.1644L20.9468 16.9458C21.2555 17.1663 21.2921 17.6103 21.024 17.8784Z" fill="#0F4C81"/>
</svg>
