<svg width="20" height="20" viewBox="0 0 20 20" fill="none" xmlns="http://www.w3.org/2000/svg">
<g clip-path="url(#clip0)">
<path d="M17.73 4.6168L16.2338 3.12066V0.888984C16.2338 0.398789 15.835 0 15.3448 0H3.06148C2.57742 0 2.18359 0.393828 2.18359 0.877891V15.6057C2.18359 16.0897 2.57742 16.4836 3.06148 16.4836H3.55805V16.9728C3.55805 17.4568 3.95187 17.8507 4.43598 17.8507H6.34039C6.50219 17.8507 6.63336 17.7195 6.63336 17.5577C6.63336 17.3959 6.50219 17.2647 6.34039 17.2647H4.43598C4.27496 17.2647 4.14398 17.1337 4.14398 16.9728V5.19371C4.14398 5.03187 4.01281 4.90074 3.85102 4.90074C3.68922 4.90074 3.55805 5.03187 3.55805 5.19371V15.8976H3.06148C2.90051 15.8976 2.76953 15.7666 2.76953 15.6057V0.877891C2.76953 0.716914 2.90051 0.585938 3.06148 0.585938H15.3448C15.512 0.585938 15.6479 0.721875 15.6479 0.888984V2.53477L14.566 1.45293C14.5111 1.39801 14.4366 1.36715 14.3589 1.36715H4.43598C3.95187 1.36715 3.55805 1.76098 3.55805 2.24504V3.82992C3.55805 3.99176 3.68922 4.12289 3.85102 4.12289C4.01281 4.12289 4.14398 3.99176 4.14398 3.82992V2.245C4.14398 2.08402 4.27496 1.95305 4.43598 1.95305H14.0659V4.82344C14.0659 4.98523 14.197 5.11637 14.3588 5.11641L17.2299 5.11688V16.9727C17.2299 17.1337 17.0989 17.2647 16.938 17.2647H15.0563C14.8945 17.2647 14.7634 17.3958 14.7634 17.5577C14.7634 17.7195 14.8945 17.8506 15.0563 17.8506H16.938C17.422 17.8506 17.8159 17.4568 17.8159 16.9727V4.82398C17.8159 4.74629 17.785 4.6718 17.73 4.6168V4.6168ZM14.6518 4.53051V2.36734L16.8155 4.5309L14.6518 4.53051Z" fill="#3A598F"/>
<path d="M14.1984 6.8537H7.1897C7.0279 6.8537 6.89673 6.98483 6.89673 7.14667C6.89673 7.3085 7.0279 7.43964 7.1897 7.43964H14.1984C14.3602 7.43964 14.4913 7.3085 14.4913 7.14667C14.4913 6.98483 14.3602 6.8537 14.1984 6.8537Z" fill="#3A598F"/>
<path d="M14.1984 8.5816H7.1897C7.0279 8.5816 6.89673 8.71274 6.89673 8.87457C6.89673 9.03641 7.0279 9.16754 7.1897 9.16754H14.1984C14.3602 9.16754 14.4913 9.03641 14.4913 8.87457C14.4913 8.71274 14.3602 8.5816 14.1984 8.5816Z" fill="#3A598F"/>
<path d="M14.1989 10.3441H12.8142C12.6524 10.3441 12.5212 10.4752 12.5212 10.637C12.5212 10.7989 12.6524 10.93 12.8142 10.93H14.1989C14.3607 10.93 14.4918 10.7989 14.4918 10.637C14.4918 10.4752 14.3607 10.3441 14.1989 10.3441Z" fill="#3A598F"/>
<path d="M11.4349 10.93C11.5967 10.93 11.7279 10.7989 11.7279 10.637C11.7279 10.4752 11.5967 10.3441 11.4349 10.3441H7.1897C7.0279 10.3441 6.89673 10.4752 6.89673 10.637C6.89673 10.7989 7.0279 10.93 7.1897 10.93H11.4349Z" fill="#3A598F"/>
<path d="M11.7682 16.602L10.9872 17.383V14.5507C10.9872 14.3889 10.856 14.2578 10.6942 14.2578C10.5324 14.2578 10.4012 14.3889 10.4012 14.5507V17.383L9.62022 16.602C9.50581 16.4876 9.3203 16.4876 9.20593 16.602C9.09151 16.7165 9.09151 16.902 9.20593 17.0163L10.4871 18.2974C10.5442 18.3546 10.6192 18.3832 10.6942 18.3832C10.7692 18.3832 10.8442 18.3546 10.9014 18.2974L12.1825 17.0163C12.2969 16.9019 12.2969 16.7164 12.1825 16.602C12.0681 16.4876 11.8826 16.4876 11.7682 16.602Z" fill="#3A598F"/>
<path d="M10.6943 12.6411C8.66535 12.6411 7.01465 14.2917 7.01465 16.3206C7.01465 18.3494 8.66535 20.0001 10.6943 20.0001C12.7232 20.0001 14.3739 18.3494 14.3739 16.3206C14.3739 14.2917 12.7232 12.6411 10.6943 12.6411ZM10.6943 19.4142C8.98843 19.4142 7.60058 18.0264 7.60058 16.3206C7.60058 14.6149 8.98843 13.2271 10.6943 13.2271C12.4001 13.2271 13.788 14.6149 13.788 16.3206C13.788 18.0264 12.4001 19.4142 10.6943 19.4142Z" fill="#3A598F"/>
</g>
<defs>
<clipPath id="clip0">
<rect width="20" height="20" fill="white"/>
</clipPath>
</defs>
</svg>
