<svg width="20" height="20" viewBox="0 0 20 20" fill="none" xmlns="http://www.w3.org/2000/svg">
<path d="M18.6914 3.26172H3.65234C2.93078 3.26172 2.34375 3.84875 2.34375 4.57031V7.36328H0.292969C0.131172 7.36328 0 7.49441 0 7.65625C0 7.81809 0.131172 7.94922 0.292969 7.94922H3.80859C3.97039 7.94922 4.10156 7.81809 4.10156 7.65625C4.10156 7.49441 3.97039 7.36328 3.80859 7.36328H2.92969V4.57031C2.92969 4.47883 2.94746 4.39156 2.97863 4.31094L8.6677 10L2.97863 15.6891C2.94746 15.6084 2.92969 15.5212 2.92969 15.4297V13.5156C2.92969 13.3538 2.79852 13.2227 2.63672 13.2227C2.47492 13.2227 2.34375 13.3538 2.34375 13.5156V15.4297C2.34375 16.1513 2.93078 16.7383 3.65234 16.7383H18.6914C19.413 16.7383 20 16.1513 20 15.4297V4.57031C20 3.84875 19.413 3.26172 18.6914 3.26172ZM13.6761 10L19.3651 4.31094C19.3963 4.39156 19.4141 4.47883 19.4141 4.57031V15.4297C19.4141 15.5212 19.3963 15.6084 19.3651 15.6891L13.6761 10ZM18.6914 3.84766C18.7829 3.84766 18.8702 3.86543 18.9508 3.8966L12.4148 10.4325C11.7295 11.118 10.6143 11.118 9.92891 10.4325L3.39297 3.8966C3.47359 3.86543 3.56086 3.84766 3.65234 3.84766H18.6914ZM3.65234 16.1523C3.56086 16.1523 3.47359 16.1346 3.39297 16.1034L9.08203 10.4143L9.51461 10.8469C9.97152 11.3038 10.5717 11.5323 11.1719 11.5323C11.7721 11.5323 12.3723 11.3038 12.8292 10.8469L13.2618 10.4143L18.9508 16.1034C18.8702 16.1346 18.7829 16.1523 18.6914 16.1523H3.65234Z" fill="#3A598F"/>
<path d="M2.63672 8.53516C2.47492 8.53516 2.34375 8.66629 2.34375 8.82812V9.70703H0.292969C0.131172 9.70703 0 9.83816 0 10C0 10.1618 0.131172 10.293 0.292969 10.293H4.98047C5.14227 10.293 5.27344 10.1618 5.27344 10C5.27344 9.83816 5.14227 9.70703 4.98047 9.70703H2.92969V8.82812C2.92969 8.66629 2.79852 8.53516 2.63672 8.53516Z" fill="#3A598F"/>
<path d="M3.80859 12.6367C3.97039 12.6367 4.10156 12.5056 4.10156 12.3438C4.10156 12.1819 3.97039 12.0508 3.80859 12.0508H2.92969V11.1719C2.92969 11.01 2.79852 10.8789 2.63672 10.8789C2.47492 10.8789 2.34375 11.01 2.34375 11.1719V12.0508H0.292969C0.131172 12.0508 0 12.1819 0 12.3438C0 12.5056 0.131172 12.6367 0.292969 12.6367H3.80859Z" fill="#3A598F"/>
</svg>
