<svg width="16" height="16" viewBox="0 0 16 16" fill="none" xmlns="http://www.w3.org/2000/svg">
<g clip-path="url(#clip0)">
<path d="M8 3.23169C4.94303 3.23169 2.17081 4.90419 0.125192 7.62077C-0.0417306 7.84333 -0.0417306 8.15426 0.125192 8.37683C2.17081 11.0967 4.94303 12.7692 8 12.7692C11.057 12.7692 13.8292 11.0967 15.8748 8.3801C16.0417 8.15754 16.0417 7.8466 15.8748 7.62404C13.8292 4.90419 11.057 3.23169 8 3.23169ZM8.21929 11.3585C6.19004 11.4862 4.51427 9.81367 4.64191 7.78114C4.74665 6.10537 6.10494 4.74708 7.78071 4.64235C9.80996 4.5147 11.4857 6.1872 11.3581 8.21972C11.2501 9.89222 9.89179 11.2505 8.21929 11.3585ZM8.11783 9.80712C7.02465 9.87585 6.1213 8.97578 6.19331 7.88261C6.24895 6.97926 6.9821 6.24938 7.88545 6.19047C8.97862 6.12174 9.88197 7.02181 9.80996 8.11499C9.75105 9.02161 9.0179 9.75148 8.11783 9.80712Z" fill="#ADADAD"/>
</g>
<defs>
<clipPath id="clip0">
<rect width="16" height="16" fill="white"/>
</clipPath>
</defs>
</svg>
