<svg width="41" height="41" viewBox="0 0 41 41" fill="none" xmlns="http://www.w3.org/2000/svg">
<g clip-path="url(#clip0)">
<path d="M13.9476 16.2974C14.1827 16.5329 14.5999 16.5154 14.8145 16.2615L17.7018 12.984C17.921 12.7351 17.897 12.3555 17.6481 12.1363C17.3992 11.917 17.0196 11.9411 16.8004 12.1899L14.3278 14.9968L12.7512 13.4806C12.5122 13.2508 12.1319 13.2583 11.902 13.4973C11.6721 13.7363 11.6796 14.1165 11.9187 14.3465L13.9476 16.2974Z" fill="#3F89CA"/>
<path d="M19.6592 14.8252H28.1475C28.4792 14.8252 28.748 14.5564 28.748 14.2246C28.748 13.8928 28.4792 13.624 28.1475 13.624H19.6592C19.3274 13.624 19.0586 13.8928 19.0586 14.2246C19.0586 14.5564 19.3274 14.8252 19.6592 14.8252Z" fill="#3F89CA"/>
<path d="M11.9187 21.4106L13.9476 23.3615C14.1824 23.5967 14.599 23.5796 14.8138 23.3264L17.7053 20.0571C17.925 19.8086 17.9017 19.429 17.6533 19.2093C17.4048 18.9896 17.0252 19.0129 16.8055 19.2613L14.3288 22.0617L12.7512 20.5448C12.5122 20.3149 12.1319 20.3223 11.902 20.5614C11.6721 20.8005 11.6796 21.1807 11.9187 21.4106Z" fill="#3F89CA"/>
<path d="M19.6592 21.8613H28.1475C28.4792 21.8613 28.748 21.5925 28.748 21.2607C28.748 20.929 28.4792 20.6602 28.1475 20.6602H19.6592C19.3274 20.6602 19.0586 20.929 19.0586 21.2607C19.0586 21.5925 19.3274 21.8613 19.6592 21.8613Z" fill="#3F89CA"/>
<path d="M28.1465 27.958H26.7451C26.4134 27.958 26.1445 28.2268 26.1445 28.5586C26.1445 28.8904 26.4134 29.1592 26.7451 29.1592H28.1465C28.4782 29.1592 28.7471 28.8904 28.7471 28.5586C28.7471 28.2268 28.4782 27.958 28.1465 27.958Z" fill="#3F89CA"/>
<path d="M19.6592 29.1592H23.9434C24.2751 29.1592 24.5439 28.8904 24.5439 28.5586C24.5439 28.2268 24.2751 27.958 23.9434 27.958H19.6592C19.3274 27.958 19.0586 28.2268 19.0586 28.5586C19.0586 28.8904 19.3274 29.1592 19.6592 29.1592Z" fill="#3F89CA"/>
<path d="M12.8545 31.002H16.5381C16.8698 31.002 17.1387 30.7331 17.1387 30.4014V26.7178C17.1387 26.386 16.8698 26.1172 16.5381 26.1172H12.8545C12.5227 26.1172 12.2539 26.386 12.2539 26.7178V30.4014C12.2539 30.7331 12.5227 31.002 12.8545 31.002ZM13.4551 27.3184H15.9375V29.8008H13.4551V27.3184Z" fill="#3F89CA"/>
<path d="M34.6337 19.419C34.9655 19.419 35.2343 19.1502 35.2343 18.8184V4.44441C35.2343 3.67173 34.6056 3.04304 33.833 3.04304L23.5777 3.04144C23.5677 2.20454 23.2125 1.39944 22.5998 0.827604C21.9696 0.239192 21.1472 -0.0518919 20.283 0.007606C18.7089 0.110506 17.4288 1.46438 17.4223 3.04144L7.16699 3.04304C6.39432 3.04304 5.76562 3.67173 5.76562 4.44441V39.5986C5.76562 40.3713 6.39432 41 7.16699 41H33.833C34.6056 41 35.2343 40.3713 35.2343 39.5986V21.6211C35.2343 21.2894 34.9655 21.0205 34.6337 21.0205C34.302 21.0205 34.0331 21.2894 34.0331 21.6211V39.5986C34.0331 39.7091 33.9434 39.7988 33.833 39.7988H7.16699C7.05656 39.7988 6.96679 39.7091 6.96679 39.5986V4.44441C6.96679 4.33398 7.05656 4.24421 7.16699 4.24421H13.0416V5.44538H8.76855C8.43679 5.44538 8.16796 5.7142 8.16796 6.04597V37.9971C8.16796 38.3288 8.43679 38.5977 8.76855 38.5977H11.4512C11.7829 38.5977 12.0517 38.3288 12.0517 37.9971C12.0517 37.6653 11.7829 37.3965 11.4512 37.3965H9.36913V6.64655H13.0416V8.00195C13.0416 8.55393 13.4906 9.00292 14.0426 9.00292H22.1521C22.4838 9.00292 22.7526 8.7341 22.7526 8.40234C22.7526 8.07058 22.4838 7.80175 22.1521 7.80175H14.2428V4.24421H18.0871C18.4702 4.24894 18.762 3.87649 18.6721 3.50573C18.3958 2.41467 19.2394 1.26779 20.3656 1.20589C21.5904 1.08465 22.6386 2.31866 22.3278 3.50597C22.2336 3.86913 22.5377 4.25214 22.9128 4.24261L26.7572 4.24421V7.80175H24.9548C24.623 7.80175 24.3542 8.07058 24.3542 8.40234C24.3542 8.7341 24.623 9.00292 24.9548 9.00292H26.9574C27.5094 9.00292 27.9584 8.55393 27.9584 8.00195V6.64655H31.6308V30.9903H25.8252C25.4934 30.9903 25.2246 31.2591 25.2246 31.5908V37.3965H14.2539C13.9221 37.3965 13.6533 37.6653 13.6533 37.9971C13.6533 38.3288 13.9221 38.5977 14.2539 38.5977H25.8252C25.983 38.5977 26.1382 38.533 26.2499 38.4218L32.6561 32.0156C32.7676 31.9037 32.8316 31.749 32.832 31.5908V6.04597C32.832 5.7142 32.5632 5.44538 32.2314 5.44538H27.9584V4.24421H33.833C33.9434 4.24421 34.0331 4.33398 34.0331 4.44441V18.8184C34.0331 19.1502 34.302 19.419 34.6337 19.419ZM26.4257 36.5472V32.1914H30.7815L26.4257 36.5472Z" fill="#3F89CA"/>
</g>
<defs>
<clipPath id="clip0">
<rect width="41" height="41" fill="white"/>
</clipPath>
</defs>
</svg>
