<svg width="38" height="30" viewBox="0 0 38 30" fill="none" xmlns="http://www.w3.org/2000/svg">
<path d="M13.696 0.0799961C6.784 4.784 0.832001 12.56 0.832001 20.336C0.832001 26.48 4.48 29.36 8.224 29.36C12.448 29.36 15.424 26.384 15.424 22.16C15.424 17.552 12.736 16.208 11.296 15.44C10.144 14.864 9.184 14.192 9.184 12.464C9.184 9.10399 13.696 4.68799 16 3.152L13.696 0.0799961ZM35.296 0.0799961C28.384 4.784 22.432 12.56 22.432 20.336C22.432 26.48 26.08 29.36 29.824 29.36C34.048 29.36 37.024 26.384 37.024 22.16C37.024 17.552 34.336 16.208 32.896 15.44C31.744 14.864 30.784 14.192 30.784 12.464C30.784 9.10399 35.296 4.68799 37.6 3.152L35.296 0.0799961Z" fill="#0F4C81" fill-opacity="0.19"/>
</svg>
